<?xml version="1.0" standalone="no"?>
<!DOCTYPE svg PUBLIC "-//W3C//DTD SVG 1.1//EN" "http://www.w3.org/Graphics/SVG/1.1/DTD/svg11.dtd" >
<svg xmlns="http://www.w3.org/2000/svg">
<metadata></metadata>
<defs>
<font id="markextralight" horiz-adv-x="1228" >
<font-face units-per-em="2048" ascent="1618" descent="-430" />
<missing-glyph horiz-adv-x="538" />
<glyph unicode="&#x2e;&#x2e;&#x2e;" horiz-adv-x="1338" d="M203 52q0 25 18 43.5t43 18.5t43.5 -18.5t18.5 -43.5t-18.5 -43t-43.5 -18t-43 18t-18 43zM608 52q0 25 18.5 43.5t43.5 18.5t42.5 -18t17.5 -44q0 -25 -17.5 -43t-42.5 -18t-43.5 18t-18.5 43zM1013 52q0 25 18 43.5t43 18.5t43.5 -18.5t18.5 -43.5t-18.5 -43t-43.5 -18 t-43 18t-18 43z" />
<glyph horiz-adv-x="0" />
<glyph horiz-adv-x="682" />
<glyph unicode=" "  horiz-adv-x="538" />
<glyph unicode="&#x09;" horiz-adv-x="538" />
<glyph unicode="&#xa0;" horiz-adv-x="538" />
<glyph unicode="!" horiz-adv-x="528" d="M203 52q0 25 18 43.5t43 18.5t43.5 -18.5t18.5 -43.5t-18.5 -43t-43.5 -18t-43 18t-18 43zM228 433v1001h72v-1001h-72z" />
<glyph unicode="&#x22;" horiz-adv-x="991" d="M312 1008v467h72v-467h-72zM605 1008v467h72v-467h-72z" />
<glyph unicode="#" horiz-adv-x="1480" d="M134 399l14 65h244l110 512h-245l13 64h245l84 394h67l-84 -394h456l84 394h67l-84 -394h242l-15 -64h-240l-110 -512h242l-15 -65h-240l-85 -399h-67l85 399h-457l-85 -399h-66l85 399h-245zM459 464h456l110 512h-457z" />
<glyph unicode="$" horiz-adv-x="1433" d="M189 164l40 58q75 -57 204 -102.5t255 -49.5v619l-61 7q-201 22 -302.5 115t-101.5 236q0 173 131 276t334 109v197h67v-197q272 -11 465 -151l-38 -59q-81 57 -191.5 95.5t-235.5 44.5v-608l83 -10q195 -21 302.5 -110.5t107.5 -239.5q-2 -183 -139 -283.5t-354 -109.5 v-200h-67v199q-134 4 -273 52t-226 112zM298 1049q0 -114 87 -189.5t277 -95.5l26 -3v601q-173 -6 -281.5 -89.5t-108.5 -223.5zM755 71q189 9 304.5 89.5t115.5 230.5q1 120 -91.5 192.5t-276.5 93.5l-52 5v-611z" />
<glyph unicode="%" horiz-adv-x="1923" d="M108 1095q0 150 100 250t247 100q151 0 252 -100t101 -250t-101 -250.5t-252 -100.5q-147 0 -247 100.5t-100 250.5zM174 1095q0 -124 80.5 -205.5t200.5 -81.5q123 0 204 81.5t81 205.5t-81 205t-204 81q-120 0 -200.5 -81.5t-80.5 -204.5zM472 0l904 1434h75 l-904 -1434h-75zM1115 339q0 150 100 250t248 100q151 0 252.5 -100t101.5 -250t-101.5 -250t-252.5 -100q-148 0 -248 100t-100 250zM1183 339q0 -124 80 -205.5t200 -81.5q123 0 204.5 81.5t81.5 205.5t-81.5 205.5t-204.5 81.5q-120 0 -200 -81.5t-80 -205.5z" />
<glyph unicode="&#x26;" horiz-adv-x="1377" d="M126 323q0 60 19 115.5t45.5 97t73.5 88t83.5 76t94.5 72.5q-87 85 -131.5 138.5t-71 113.5t-26.5 126q0 122 89.5 208.5t223.5 86.5t223.5 -83.5t89.5 -202.5q0 -61 -22 -115t-69 -105t-86.5 -84.5t-109.5 -85.5l394 -388l254 365l57 -35l-261 -379l336 -332h-103 l-276 271q-47 -64 -89 -109.5t-97 -87.5t-121 -63.5t-142 -21.5q-169 0 -273.5 92t-104.5 242zM203 325q0 -118 85.5 -193.5t219.5 -75.5q123 0 212.5 67t182.5 198l-411 404q-57 -43 -88.5 -69t-75.5 -69t-67 -78.5t-40.5 -84t-17.5 -99.5zM290 1146q0 -77 44.5 -143 t168.5 -187q49 36 80 61t69 61.5t59.5 67.5t36.5 70.5t15 79.5q0 93 -67 157t-170 64t-169.5 -67t-66.5 -164z" />
<glyph unicode="'" horiz-adv-x="698" d="M312 1008v467h72v-467h-72z" />
<glyph unicode="(" horiz-adv-x="794" d="M161 582q0 309 145 549t375 319l24 -67q-136 -47 -242.5 -164t-166 -283t-59.5 -354q0 -284 131 -507.5t337 -293.5l-24 -67q-151 50 -269 176.5t-184.5 307.5t-66.5 384z" />
<glyph unicode=")" horiz-adv-x="794" d="M90 -219q206 70 337 294t131 508t-131 507t-337 293l24 67q228 -78 374 -318.5t146 -548.5q0 -203 -66.5 -384.5t-185 -308t-268.5 -176.5z" />
<glyph unicode="*" horiz-adv-x="847" d="M113 1227l17 54l267 -87v281h57v-281l265 87l17 -54l-265 -86l165 -228l-46 -32l-165 226l-165 -226l-45 32l165 227z" />
<glyph unicode="+" d="M189 504v65h389v396h66v-396h395v-65h-395v-389h-66v389h-389z" />
<glyph unicode="," horiz-adv-x="491" d="M167 -244l67 467h82l-87 -467h-62z" />
<glyph unicode="-" horiz-adv-x="849" d="M157 504v65h536v-65h-536z" />
<glyph unicode="." horiz-adv-x="528" d="M203 50q0 25 18 43.5t43 18.5t43.5 -18.5t18.5 -43.5t-18.5 -43t-43.5 -18t-43 18t-18 43z" />
<glyph unicode="/" horiz-adv-x="996" d="M19 -205l870 1782h79l-870 -1782h-79z" />
<glyph unicode="0" d="M94 718q0 179 39.5 319.5t110.5 228.5t165 133.5t206 45.5t206 -47t164.5 -136t110 -228.5t39.5 -315.5q0 -180 -39.5 -321t-110 -229t-164.5 -133.5t-206 -45.5t-206 45.5t-165 133.5t-110.5 229t-39.5 321zM170 718q0 -322 123 -490.5t322 -168.5t321.5 168.5 t122.5 490.5q0 316 -123 486t-321 170q-200 0 -322.5 -167.5t-122.5 -488.5z" />
<glyph unicode="1" d="M176 1179v75l533 190v-1374h416v-70h-939v70h450v1273z" />
<glyph unicode="2" d="M164 1210q142 235 414 235q137 0 237 -57.5t148.5 -152t48.5 -212.5q0 -120 -52.5 -218.5t-141.5 -191.5l-520 -543h773v-70h-883v57l574 599q174 179 174 367q0 152 -95 251.5t-266 99.5q-228 0 -357 -207z" />
<glyph unicode="3" d="M151 156l48 50q151 -148 378 -148q80 0 150.5 20t126.5 58t89 101t33 143q0 93 -53.5 164t-142.5 108t-198 37h-209v72h209q160 0 261.5 80.5t101.5 229.5q0 133 -108 218.5t-276 85.5q-111 0 -200.5 -47.5t-149.5 -126.5l-53 45q68 92 171 145.5t237 53.5 q201 0 328 -105.5t127 -268.5q0 -131 -65 -218t-180 -128q125 -38 201 -129t76 -216q0 -77 -26 -142t-71 -110.5t-105.5 -77t-129 -46.5t-142.5 -15q-261 0 -428 167z" />
<glyph unicode="4" d="M97 331v57l536 1045h83l-531 -1033h622v418h74v-418h277v-69h-277v-331h-74v331h-710z" />
<glyph unicode="5" d="M127 205l50 47q155 -193 418 -193q182 0 290 100.5t108 261.5q0 158 -115.5 252.5t-341.5 94.5h-291l24 666h744v-70h-676l-22 -526h241q247 0 380 -114t133 -297q0 -200 -132.5 -319t-341.5 -119q-293 0 -468 216z" />
<glyph unicode="6" d="M120 443q0 130 77 258l444 733h90l-364 -594q113 58 246 58q213 0 353 -130.5t140 -324.5q0 -195 -140 -324.5t-353 -129.5t-353 130t-140 324zM196 443q0 -167 118 -276.5t299 -109.5t299 109.5t118 276.5t-118 276.5t-299 109.5q-182 0 -299.5 -109.5t-117.5 -276.5z " />
<glyph unicode="7" d="M143 1364v70h957v-58l-684 -1376h-85l681 1364h-869z" />
<glyph unicode="8" d="M101 377q0 132 84 221t221 128q-122 39 -196 126.5t-74 218.5q0 174 137 274t342 100q133 0 240 -42.5t173 -128.5t66 -203q0 -130 -74 -218t-196 -127q137 -39 220.5 -128t83.5 -221q0 -123 -70 -212t-184.5 -132.5t-258.5 -43.5t-258.5 43.5t-185 133t-70.5 211.5z M179 377q0 -102 59.5 -175.5t156.5 -109t220 -35.5q122 0 219 35.5t157 109t60 175.5q0 148 -124 231.5t-312 83.5q-189 0 -312.5 -83.5t-123.5 -231.5zM213 1070q0 -149 114 -231t288 -82q112 0 201.5 34.5t145 106.5t55.5 172q0 97 -55.5 167.5t-145 104t-201.5 33.5 q-174 0 -288 -80t-114 -225z" />
<glyph unicode="9" d="M123 990q0 195 139.5 325t352.5 130t353.5 -130.5t140.5 -324.5q0 -131 -77 -257l-445 -733h-89l364 594q-113 -58 -247 -58q-213 0 -352.5 129.5t-139.5 324.5zM199 990q0 -166 117.5 -276t298.5 -110t299.5 109.5t118.5 276.5q0 166 -118 276t-300 110 q-181 0 -298.5 -110t-117.5 -276z" />
<glyph unicode=":" horiz-adv-x="528" d="M203 52q0 25 18 43.5t43 18.5t43.5 -18.5t18.5 -43.5t-18.5 -43t-43.5 -18t-43 18t-18 43zM203 905q0 25 18 43.5t43 18.5t43.5 -18.5t18.5 -43.5t-18.5 -43t-43.5 -18t-43 18t-18 43z" />
<glyph unicode=";" horiz-adv-x="491" d="M167 -244l67 467h82l-87 -467h-62zM187 905q0 25 18.5 43.5t43.5 18.5t42.5 -18.5t17.5 -43.5t-17.5 -43t-42.5 -18t-43.5 18t-18.5 43z" />
<glyph unicode="&#x3c;" d="M230 502v71l768 371v-76l-696 -330l696 -331v-77z" />
<glyph unicode="=" d="M189 335v65h850v-65h-850zM189 673v65h850v-65h-850z" />
<glyph unicode="&#x3e;" d="M230 130v76l697 331l-697 330v77l768 -372v-71z" />
<glyph unicode="?" horiz-adv-x="848" d="M163 1439q58 8 120 8q213 0 347 -105t134 -278q0 -169 -122 -272.5t-334 -115.5l-4 -243h-65v310h31q190 0 302.5 86.5t112.5 232.5q0 140 -113 225t-292 85q-63 0 -111 -6zM210 50q0 25 18 43.5t43 18.5t43.5 -18.5t18.5 -43.5t-18.5 -43t-43.5 -18t-43 18t-18 43z" />
<glyph unicode="@" horiz-adv-x="2030" d="M187 512q0 168 64.5 319.5t174.5 260.5t264 173t326 64q173 0 325 -58t263 -160t175 -250t64 -321q0 -185 -83.5 -308t-218.5 -123q-85 0 -137 47t-64 136q-51 -86 -138 -134.5t-200 -48.5q-171 0 -286 115.5t-115 287.5t115 287.5t286 115.5q112 0 198 -48.5t137 -134.5 v173h63v-524q0 -213 144 -213q103 0 168.5 102.5t65.5 269.5q0 216 -101.5 383.5t-274.5 257t-386 89.5q-158 0 -299 -59t-243 -160t-161.5 -241.5t-59.5 -297.5q0 -160 59.5 -302.5t161.5 -244t243 -161t299 -59.5q254 0 464 151l33 -48q-222 -161 -497 -161 q-172 0 -325.5 64.5t-264 174.5t-175 263t-64.5 323zM666 512q0 -148 95 -246t241 -98q145 0 241.5 98t96.5 246t-96.5 246t-241.5 98q-146 0 -241 -98t-95 -246z" />
<glyph unicode="A" horiz-adv-x="1419" d="M45 0l619 1434h92l618 -1434h-82l-190 443h-787l-190 -443h-80zM346 516h724l-361 840z" />
<glyph unicode="B" horiz-adv-x="1430" d="M223 0v1434h553q113 0 202 -21t155 -64.5t101.5 -115t35.5 -167.5q0 -122 -65 -206.5t-181 -123.5q131 -40 202 -128.5t71 -222.5q0 -195 -132.5 -290t-368.5 -95h-573zM299 72h494q426 0 426 313q0 312 -426 312h-494v-625zM299 770h475q416 0 416 296t-416 296h-475 v-592z" />
<glyph unicode="C" horiz-adv-x="1562" d="M134 717q0 212 96.5 379t262 258t368.5 91q181 0 335 -78.5t238 -213.5l-64 -43q-78 121 -213.5 191.5t-295.5 70.5q-180 0 -327 -81t-233.5 -231.5t-86.5 -342.5t86.5 -343t233.5 -232t327 -81q160 0 295.5 70t213.5 192l63 -45q-89 -134 -240.5 -211.5t-331.5 -77.5 q-203 0 -368.5 91t-262 258t-96.5 379z" />
<glyph unicode="D" horiz-adv-x="1647" d="M223 0v1434h501q369 0 579.5 -191.5t210.5 -525.5t-210.5 -525.5t-579.5 -191.5h-501zM299 73h425q339 0 525.5 171.5t186.5 472.5t-186.5 472.5t-525.5 171.5h-425v-1288z" />
<glyph unicode="E" horiz-adv-x="1361" d="M223 0v1434h956v-72h-880v-604h857v-72h-857v-614h884v-72h-960z" />
<glyph unicode="F" horiz-adv-x="1309" d="M223 0v1434h953v-73h-877v-603h849v-72h-849v-686h-76z" />
<glyph unicode="G" horiz-adv-x="1674" d="M134 717q0 158 56.5 295t154 231.5t231.5 148t285 53.5q166 0 311 -66.5t244 -184.5l-56 -53q-90 108 -220 169.5t-279 61.5q-180 0 -327 -81t-233.5 -231.5t-86.5 -342.5t86.5 -343t233 -232t324.5 -81q267 0 430 166.5t171 444.5h-534v71h616v-23q0 -212 -83 -377.5 t-239 -259.5t-361 -94q-145 0 -276.5 52t-231 144.5t-158 230.5t-58.5 301z" />
<glyph unicode="H" horiz-adv-x="1591" d="M223 0v1434h76v-676h991v676h77v-1434h-77v686h-991v-686h-76z" />
<glyph unicode="I" horiz-adv-x="523" d="M223 0v1434h76v-1434h-76z" />
<glyph unicode="J" horiz-adv-x="1179" d="M53 166l50 53q146 -157 368 -157q188 0 303.5 121t115.5 340v911h77v-917q0 -248 -139 -388t-357 -140q-251 0 -418 177z" />
<glyph unicode="K" horiz-adv-x="1372" d="M223 0v1434h76v-677h212l674 677h99l-713 -709l756 -725h-104l-713 685h-211v-685h-76z" />
<glyph unicode="L" horiz-adv-x="1221" d="M223 0v1434h76v-1361h878v-73h-954z" />
<glyph unicode="M" horiz-adv-x="1891" d="M223 0v1434h112l610 -1161l610 1161h112v-1434h-77v1340l-605 -1156h-80l-606 1153v-1337h-76z" />
<glyph unicode="N" horiz-adv-x="1595" d="M223 0v1434h69l1002 -1302v1302h77v-1434h-68l-1003 1302l-1 -1302h-76z" />
<glyph unicode="O" horiz-adv-x="1721" d="M134 717q0 212 96.5 379t262 258t368.5 91t368.5 -91t262 -258t96.5 -379t-96.5 -379t-262 -258t-368.5 -91t-368.5 91t-262 258t-96.5 379zM214 717q0 -192 86.5 -343t233.5 -232t327 -81q134 0 253 48t206 132.5t137.5 208t50.5 267.5t-50.5 267t-137.5 208t-206 132.5 t-253 47.5q-180 0 -327 -81t-233.5 -231.5t-86.5 -342.5z" />
<glyph unicode="P" horiz-adv-x="1366" d="M223 0v1434h521q235 0 370.5 -110.5t135.5 -309.5t-136 -310t-370 -111h-445v-593h-76zM299 666h444q200 0 314 90t114 258q0 167 -114 257t-314 90h-444v-695z" />
<glyph unicode="Q" horiz-adv-x="1721" d="M134 717q0 212 96.5 379t262 258t368.5 91t368.5 -91t262 -258t96.5 -379q0 -275 -158 -467l203 -250h-90l-163 196q-99 -100 -232.5 -153.5t-286.5 -53.5q-203 0 -368.5 91t-262 258t-96.5 379zM214 717q0 -192 86.5 -343t233.5 -232t327 -81q139 0 260 50t211 144 l-377 459h92l332 -404q129 173 129 407q0 144 -50.5 267t-137.5 208t-206 132.5t-253 47.5q-180 0 -327 -81t-233.5 -231.5t-86.5 -342.5z" />
<glyph unicode="R" horiz-adv-x="1358" d="M223 0v1434h527q233 0 361 -102.5t128 -289.5q0 -184 -130 -288t-358 -104h-97l577 -650h-95l-572 650h-265v-650h-76zM299 720h453q197 0 302.5 83t105.5 239q0 154 -106.5 237t-301.5 83h-453v-642z" />
<glyph unicode="S" horiz-adv-x="1372" d="M134 163l42 60q87 -66 221 -114t282 -48q102 0 188 20t152 59t103 102t37 144q0 129 -94 198t-287 90l-187 19q-211 22 -315.5 113t-104.5 243q0 124 68.5 215t184 136t261.5 45q291 0 509 -160l-39 -61q-199 148 -471 148q-191 0 -312.5 -85.5t-121.5 -233.5 q0 -248 375 -287l183 -20q210 -24 320 -108t110 -246q0 -80 -28.5 -146.5t-79.5 -113.5t-121.5 -79.5t-153.5 -48t-176 -15.5q-157 0 -303 50.5t-242 123.5z" />
<glyph unicode="T" horiz-adv-x="1247" d="M45 1361v73h1157v-73h-540v-1361h-76v1361h-541z" />
<glyph unicode="U" horiz-adv-x="1536" d="M201 555v879h77v-874q0 -122 37.5 -218t104.5 -156.5t155.5 -92t192.5 -31.5t192 31.5t155 92t104.5 156.5t37.5 218v874h77v-879q0 -137 -44.5 -246.5t-122 -178.5t-179.5 -105t-220 -36q-119 0 -221 36t-180 105t-122 178.5t-44 246.5z" />
<glyph unicode="V" horiz-adv-x="1405" d="M45 1434h82l576 -1355l579 1355h79l-611 -1434h-93z" />
<glyph unicode="W" horiz-adv-x="2270" d="M72 1434h81l470 -1348l472 1348h84l472 -1348l470 1348h78l-504 -1434h-91l-468 1333l-468 -1333h-91z" />
<glyph unicode="X" horiz-adv-x="1414" d="M82 0l576 735l-546 699h93l503 -640l504 640h91l-547 -699l576 -735h-92l-533 678l-534 -678h-91z" />
<glyph unicode="Y" horiz-adv-x="1261" d="M13 1434h92l527 -727l527 727h89l-578 -800v-634h-76v634z" />
<glyph unicode="Z" horiz-adv-x="1375" d="M134 0v59l1000 1302h-978v73h1080v-58l-1000 -1303h1005v-73h-1107z" />
<glyph unicode="[" horiz-adv-x="738" d="M223 -269v1703h425v-67h-352v-1570h352v-66h-425z" />
<glyph unicode="\" horiz-adv-x="996" d="M29 1577h79l869 -1782h-79z" />
<glyph unicode="]" horiz-adv-x="738" d="M90 -203h352v1570h-352v67h425v-1703h-425v66z" />
<glyph unicode="_" horiz-adv-x="955" d="M-5 -171h966v-66h-966v66z" />
<glyph unicode="a" horiz-adv-x="1272" d="M116 477q0 211 139 350.5t345 139.5q134 0 240.5 -63.5t167.5 -172.5v224h70v-955h-70v223q-62 -108 -168 -171t-240 -63q-206 0 -345 138.5t-139 349.5zM188 477q0 -179 117 -300t295 -121q177 0 294.5 120.5t117.5 300.5q0 181 -117.5 301.5t-294.5 120.5 q-178 0 -295 -121t-117 -301z" />
<glyph unicode="b" horiz-adv-x="1272" d="M195 0v1475h71v-743q62 108 167.5 171.5t239.5 63.5q206 0 345.5 -139.5t139.5 -350.5q0 -210 -139 -349t-346 -139q-134 0 -240 63t-167 170v-222h-71zM261 477q0 -180 117.5 -300.5t294.5 -120.5q178 0 294.5 120.5t116.5 300.5t-116.5 301t-294.5 121 q-177 0 -294.5 -120.5t-117.5 -301.5z" />
<glyph unicode="c" horiz-adv-x="1045" d="M116 477q0 210 137 350t346 140q213 0 349 -147l-46 -48q-127 127 -305 127q-175 0 -292 -120t-117 -302q0 -181 117 -301t292 -120q179 0 306 127l45 -48q-135 -146 -349 -146q-209 0 -346 139t-137 349z" />
<glyph unicode="d" horiz-adv-x="1272" d="M116 477q0 211 139 350.5t345 139.5q134 0 240.5 -63.5t167.5 -172.5v744h70v-1475h-70v223q-62 -108 -168 -171t-240 -63q-206 0 -345 138.5t-139 349.5zM188 477q0 -179 117 -300t295 -121q177 0 294.5 120.5t117.5 300.5q0 181 -117.5 301.5t-294.5 120.5 q-178 0 -295 -121t-117 -301z" />
<glyph unicode="e" horiz-adv-x="1149" d="M116 477q0 211 136 350.5t336 139.5q189 0 316 -136t131 -347q0 -6 -0.5 -16t-0.5 -15h-844q8 -179 121.5 -288t284.5 -109q199 0 346 154l43 -49q-154 -172 -393 -172q-208 0 -342 136.5t-134 351.5zM190 518h769q-10 165 -115.5 273t-256.5 108q-160 0 -271.5 -107.5 t-125.5 -273.5z" />
<glyph unicode="f" horiz-adv-x="911" d="M58 890v65h256v166q0 365 314 365q140 0 254 -72l-27 -59q-98 63 -223 63q-130 0 -188.5 -76.5t-58.5 -220.5v-166h452v-65h-452v-890h-71v890h-256z" />
<glyph unicode="g" horiz-adv-x="1267" d="M116 477q0 211 138.5 350.5t344.5 139.5q131 0 236.5 -61.5t166.5 -166.5v216h71v-890q0 -119 -40 -213t-109 -152t-157 -88.5t-188 -30.5q-122 0 -228 40t-177 111l36 54q67 -65 162 -102t207 -37q85 0 160 25t134.5 74.5t94 130.5t34.5 184v154q-61 -104 -166.5 -165 t-236.5 -61q-206 0 -344.5 138.5t-138.5 349.5zM188 477q0 -180 116.5 -300.5t294.5 -120.5q177 0 295 120.5t118 300.5q0 181 -117.5 301.5t-295.5 120.5t-294.5 -121t-116.5 -301z" />
<glyph unicode="h" horiz-adv-x="1220" d="M195 0v1475h71v-702q54 90 146 142t211 52q193 0 304 -110t111 -297v-560h-70v560q0 155 -92 247t-260 92q-154 0 -252 -99t-98 -247v-553h-71z" />
<glyph unicode="i" horiz-adv-x="460" d="M178 1306q0 23 15 38t37 15q23 0 38.5 -15.5t15.5 -37.5t-15.5 -37.5t-38.5 -15.5q-22 0 -37 15t-15 38zM195 0v955h71v-955h-71z" />
<glyph unicode="j" horiz-adv-x="461" d="M-40 -384l20 61q45 -28 101 -28q116 0 116 143v1163h70v-1166q0 -102 -45.5 -155t-134.5 -53q-68 0 -127 35zM179 1306q0 23 15 38t37 15q23 0 38.5 -15.5t15.5 -37.5t-15.5 -37.5t-38.5 -15.5q-22 0 -37 15t-15 38z" />
<glyph unicode="k" horiz-adv-x="1047" d="M195 0v1475h71v-940h177l446 420h91l-481 -451l491 -504h-91l-457 469h-176v-469h-71z" />
<glyph unicode="l" horiz-adv-x="460" d="M195 0v1475h71v-1475h-71z" />
<glyph unicode="m" horiz-adv-x="1993" d="M195 0v955h70v-183q54 90 146 142.5t212 52.5q143 0 242.5 -62t142.5 -174q48 108 149 172t233 64q196 0 308.5 -109.5t112.5 -297.5v-560h-71v560q0 155 -91.5 247t-258.5 92q-154 0 -253 -99t-99 -247v-553h-70v560q0 155 -92 247t-260 92q-154 0 -252 -99t-98 -247 v-553h-71z" />
<glyph unicode="n" horiz-adv-x="1220" d="M195 0v955h70v-183q54 90 146 142.5t212 52.5q193 0 304 -110t111 -297v-560h-70v560q0 155 -92 247t-260 92q-154 0 -252 -99t-98 -247v-553h-71z" />
<glyph unicode="o" horiz-adv-x="1206" d="M116 477q0 209 139.5 349.5t346.5 140.5q209 0 349.5 -140.5t140.5 -349.5t-140.5 -348.5t-349.5 -139.5q-207 0 -346.5 139.5t-139.5 348.5zM188 477q0 -181 119 -301t295 -120q178 0 297.5 120t119.5 301q0 182 -119.5 302t-297.5 120q-176 0 -295 -120.5t-119 -301.5z " />
<glyph unicode="p" horiz-adv-x="1272" d="M195 -410v1365h71v-223q62 108 167.5 171.5t239.5 63.5q206 0 345.5 -139.5t139.5 -350.5q0 -210 -139 -349t-346 -139q-134 0 -240 63t-167 170v-632h-71zM261 477q0 -180 117.5 -300.5t294.5 -120.5q178 0 294.5 120.5t116.5 300.5t-116.5 301t-294.5 121 q-177 0 -294.5 -120.5t-117.5 -301.5z" />
<glyph unicode="q" horiz-adv-x="1272" d="M116 477q0 211 139 350.5t345 139.5q134 0 240.5 -63.5t167.5 -172.5v224h70v-1365h-70v633q-62 -108 -168 -171t-240 -63q-206 0 -345 138.5t-139 349.5zM188 477q0 -179 117 -300t295 -121q177 0 294.5 120.5t117.5 300.5q0 181 -117.5 301.5t-294.5 120.5 q-178 0 -295 -121t-117 -301z" />
<glyph unicode="r" horiz-adv-x="812" d="M195 0v955h70v-168q47 84 124 132t180 48q109 0 185 -41l-20 -66q-69 40 -171 40q-135 0 -216.5 -100.5t-81.5 -250.5v-549h-70z" />
<glyph unicode="s" horiz-adv-x="984" d="M97 110l36 56q140 -111 352 -111q147 0 238 52t91 152q0 158 -248 182l-135 14q-157 16 -231 80t-74 163q0 124 100.5 196t262.5 72q109 0 207.5 -31t164.5 -79l-34 -57q-58 42 -148 71.5t-189 29.5q-128 0 -209 -53.5t-81 -145.5q0 -152 246 -179l135 -14 q306 -31 306 -245q0 -131 -111 -202.5t-292 -71.5q-227 0 -387 121z" />
<glyph unicode="t" horiz-adv-x="924" d="M58 890v65h235v323h72v-323h474v-65h-474v-571q0 -131 63 -197t176 -66q138 0 230 81l35 -52q-109 -96 -270 -96q-146 0 -226 83t-80 246v572h-235z" />
<glyph unicode="u" horiz-adv-x="1208" d="M183 390v565h71v-559q0 -158 96 -249t254 -91t254 91t96 249v559h72v-565q0 -187 -118 -294t-304 -107t-303.5 107t-117.5 294z" />
<glyph unicode="v" horiz-adv-x="1040" d="M40 955h78l402 -884l405 884h75l-440 -959h-80z" />
<glyph unicode="w" horiz-adv-x="1790" d="M60 955h76l369 -883l351 883h80l351 -883l370 883h75l-404 -955h-83l-350 882l-350 -882h-82z" />
<glyph unicode="x" horiz-adv-x="1009" d="M39 0l418 488l-402 467h88l363 -417l363 417h85l-402 -466l419 -489h-88l-381 436l-379 -436h-84z" />
<glyph unicode="y" horiz-adv-x="1019" d="M28 955h81l420 -663l393 663h78l-809 -1367h-79l377 633z" />
<glyph unicode="z" horiz-adv-x="1103" d="M136 0v52l731 838h-709v65h801v-53l-728 -836h737v-66h-832z" />
<glyph unicode="{" horiz-adv-x="839" d="M134 550v65q121 0 188 70.5t59 216.5l-11 172q-12 177 71 268.5t233 91.5h76v-67h-76q-113 0 -176.5 -71t-54.5 -215l11 -172q8 -139 -46.5 -219.5t-159.5 -106.5q105 -26 159.5 -107t46.5 -220l-11 -172q-9 -144 54.5 -215t176.5 -71h76v-66h-76q-150 0 -233 91t-71 268 l11 172q8 146 -59 216.5t-188 70.5z" />
<glyph unicode="|" horiz-adv-x="698" d="M312 -271v1705h72v-1705h-72z" />
<glyph unicode="}" horiz-adv-x="839" d="M90 -202h76q113 0 175.5 70.5t54.5 215.5l-10 172q-9 138 46 219.5t160 107.5q-105 26 -160 107t-46 219l10 172q8 145 -54.5 215.5t-175.5 70.5h-76v67h76q150 0 233 -91.5t71 -268.5l-11 -172q-9 -145 58.5 -216t188.5 -71v-65q-121 0 -188.5 -71t-58.5 -216l11 -172 q12 -177 -71 -268t-233 -91h-76v66z" />
<glyph unicode="&#xa1;" horiz-adv-x="528" d="M203 903q0 25 18 43.5t43 18.5t43.5 -18.5t18.5 -43.5t-18.5 -43t-43.5 -18t-43 18t-18 43zM228 -478v1000h72v-1000h-72z" />
<glyph unicode="&#xa3;" horiz-adv-x="1433" d="M203 0v70h199v614h-199v66h199v217q0 115 34.5 207t95 150.5t140 89.5t171.5 31q236 0 363 -191l-54 -46q-106 166 -309 166q-162 0 -264.5 -106t-102.5 -305v-213h580v-66h-580v-614h755v-70h-1028z" />
<glyph unicode="&#xa5;" horiz-adv-x="1433" d="M135 1434h88l496 -661l493 661h87l-520 -698h413v-64h-436v-254h436v-65h-436v-353h-74v353h-436v65h436v254h-436v64h411z" />
<glyph unicode="&#xa7;" horiz-adv-x="1343" d="M161 -119l39 58q82 -65 200 -110.5t260 -45.5q124 0 219 28t153 90t58 151q0 102 -96 162.5t-251 75.5l-170 17q-177 17 -279.5 94t-102.5 206q0 87 46.5 153.5t131.5 108.5q-157 83 -157 241q0 103 63 180t167.5 116t235.5 39q138 0 257.5 -43.5t204.5 -111.5l-36 -57 q-78 63 -189.5 103.5t-236.5 40.5q-173 0 -283 -70.5t-110 -192.5q0 -103 88 -163t255 -75l164 -16q109 -10 194.5 -44t141 -100.5t55.5 -155.5q0 -178 -181 -266q160 -83 160 -237q0 -112 -69 -191t-180.5 -115t-252.5 -36q-150 0 -278 47.5t-221 118.5zM264 611 q0 -204 344 -238l165 -17q102 -13 161 -33q177 71 177 232q0 103 -97.5 164.5t-252.5 74.5l-166 15q-81 7 -157 32q-83 -33 -128.5 -92t-45.5 -138z" />
<glyph unicode="&#xa9;" horiz-adv-x="1937" d="M161 720q0 218 108.5 403.5t295 294t405.5 108.5q164 0 313.5 -64t257.5 -172t172.5 -257.5t64.5 -312.5t-64.5 -312.5t-172.5 -257.5t-257.5 -172t-313.5 -64t-314 64t-258.5 172t-172.5 257t-64 313zM226 720q0 -202 99.5 -373t270.5 -270.5t374 -99.5 q202 0 372.5 99.5t270 270.5t99.5 373t-99.5 373t-270 270t-372.5 99q-152 0 -289.5 -58.5t-237 -158t-158.5 -237t-59 -288.5zM563 720q0 190 123 311t306 121q107 0 198 -46.5t144 -128.5l-53 -37q-46 71 -121.5 110.5t-167.5 39.5q-153 0 -257 -103.5t-104 -266.5 q0 -165 104 -267t257 -102q92 0 168 39.5t122 109.5l50 -40q-54 -80 -143.5 -126t-196.5 -46q-183 0 -306 121t-123 311z" />
<glyph unicode="&#xab;" horiz-adv-x="991" d="M158 537l199 365h78l-199 -365l199 -366h-78zM524 537l200 365h78l-200 -365l200 -366h-78z" />
<glyph unicode="&#xad;" horiz-adv-x="849" d="M157 504v65h536v-65h-536z" />
<glyph unicode="&#xae;" horiz-adv-x="836" d="M53 1098q0 150 107.5 256t260.5 106q150 0 256 -106t106 -256q0 -149 -106 -254.5t-256 -105.5q-153 0 -260.5 105.5t-107.5 254.5zM102 1098q0 -130 93.5 -222.5t225.5 -92.5q129 0 220.5 92.5t91.5 222.5q0 133 -90.5 225t-221.5 92q-132 0 -225.5 -92.5t-93.5 -224.5z M294 921v362h148q63 0 99 -27.5t36 -78.5q0 -46 -34 -75t-92 -31l127 -150h-51l-124 150h-67v-150h-42zM336 1105h106q43 0 68 19t25 53t-24.5 52t-68.5 18h-106v-142z" />
<glyph unicode="&#xb0;" horiz-adv-x="751" d="M53 1124q0 132 95.5 226.5t228.5 94.5t227 -94t94 -227t-94 -227t-227 -94t-228.5 94t-95.5 227zM116 1124q0 -109 76.5 -185.5t184.5 -76.5t184 76.5t76 185.5q0 108 -76.5 184.5t-183.5 76.5q-108 0 -184.5 -76.5t-76.5 -184.5z" />
<glyph unicode="&#xb7;" horiz-adv-x="812" d="M345 537q0 25 18.5 43t43.5 18t43 -18t18 -43t-18 -43.5t-43 -18.5t-43.5 18.5t-18.5 43.5z" />
<glyph unicode="&#xbb;" horiz-adv-x="991" d="M189 171l200 366l-200 365h78l200 -365l-200 -366h-78zM556 171l200 366l-200 365h78l200 -365l-200 -366h-78z" />
<glyph unicode="&#xbf;" horiz-adv-x="848" d="M85 -109q0 168 121.5 272t333.5 116l5 243h65v-310h-31q-190 0 -302.5 -86t-112.5 -232q0 -140 113 -225.5t292 -85.5q63 0 111 6l6 -72q-65 -9 -120 -9q-213 0 -347 105t-134 278zM516 905q0 25 18.5 43.5t43.5 18.5t43 -18.5t18 -43.5t-18 -43t-43 -18t-43.5 18 t-18.5 43z" />
<glyph unicode="&#xc0;" horiz-adv-x="1419" d="M45 0l619 1434h92l618 -1434h-82l-190 443h-787l-190 -443h-80zM346 516h724l-361 840zM498 1828h90l239 -307h-72z" />
<glyph unicode="&#xc1;" horiz-adv-x="1419" d="M45 0l619 1434h92l618 -1434h-82l-190 443h-787l-190 -443h-80zM346 516h724l-361 840zM588 1521l238 307h92l-258 -307h-72z" />
<glyph unicode="&#xc2;" horiz-adv-x="1419" d="M45 0l619 1434h92l618 -1434h-82l-190 443h-787l-190 -443h-80zM346 516h724l-361 840zM393 1535l273 280h88l272 -280h-79l-237 229l-238 -229h-79z" />
<glyph unicode="&#xc3;" horiz-adv-x="1419" d="M45 0l619 1434h92l618 -1434h-82l-190 443h-787l-190 -443h-80zM346 516h724l-361 840zM376 1650q40 57 85.5 84t110.5 27q46 0 84.5 -15t61.5 -33t57 -33t71 -15q48 0 83 21.5t69 68.5l44 -41q-40 -57 -85.5 -84t-110.5 -27q-46 0 -84.5 15t-61.5 33.5t-57 33.5t-71 15 q-48 0 -83 -22t-69 -69z" />
<glyph unicode="&#xc4;" horiz-adv-x="1419" d="M45 0l619 1434h92l618 -1434h-82l-190 443h-787l-190 -443h-80zM346 516h724l-361 840zM445 1672q0 22 15 37t38 15t38 -15t15 -37t-15.5 -37.5t-37.5 -15.5t-37.5 15.5t-15.5 37.5zM869 1672q0 22 15 37t38 15t38 -15t15 -37t-15.5 -37.5t-37.5 -15.5t-37.5 15.5 t-15.5 37.5z" />
<glyph unicode="&#xc5;" horiz-adv-x="1419" d="M45 0l619 1434h92l618 -1434h-82l-190 443h-787l-190 -443h-80zM346 516h724l-361 840zM505 1712q0 83 60.5 143.5t144.5 60.5q83 0 143 -60.5t60 -143.5q0 -84 -60 -143.5t-143 -59.5q-84 0 -144.5 59.5t-60.5 143.5zM562 1712q0 -62 43 -104.5t105 -42.5t104 42.5 t42 104.5t-42.5 105t-103.5 43q-62 0 -105 -43t-43 -105z" />
<glyph unicode="&#xc6;" horiz-adv-x="2293" d="M36 0l1099 1434h975v-72h-879v-604h857v-72h-857v-614h884v-72h-960v432h-696l-331 -432h-92zM514 505h641v837z" />
<glyph unicode="&#xc7;" horiz-adv-x="1562" d="M134 717q0 212 96.5 379t262 258t368.5 91q181 0 335 -78.5t238 -213.5l-64 -43q-78 121 -213.5 191.5t-295.5 70.5q-180 0 -327 -81t-233.5 -231.5t-86.5 -342.5t86.5 -343t233.5 -232t327 -81q160 0 295.5 70t213.5 192l63 -45q-89 -134 -240.5 -211.5t-331.5 -77.5 q-203 0 -368.5 91t-262 258t-96.5 379zM729 -333l110 338l73 -2l-105 -336h-78z" />
<glyph unicode="&#xc8;" horiz-adv-x="1361" d="M223 0v1434h956v-72h-880v-604h857v-72h-857v-614h884v-72h-960zM481 1828h90l240 -307h-73z" />
<glyph unicode="&#xc9;" horiz-adv-x="1361" d="M223 0v1434h956v-72h-880v-604h857v-72h-857v-614h884v-72h-960zM571 1521l239 307h91l-257 -307h-73z" />
<glyph unicode="&#xca;" horiz-adv-x="1361" d="M223 0v1434h956v-72h-880v-604h857v-72h-857v-614h884v-72h-960zM377 1535l272 280h88l273 -280h-79l-238 229l-237 -229h-79z" />
<glyph unicode="&#xcb;" horiz-adv-x="1361" d="M223 0v1434h956v-72h-880v-604h857v-72h-857v-614h884v-72h-960zM429 1672q0 22 14.5 37t37.5 15t38.5 -15t15.5 -37t-15.5 -37.5t-38.5 -15.5q-22 0 -37 15t-15 38zM853 1672q0 22 14.5 37t37.5 15t38 -15t15 -37t-15 -37.5t-38 -15.5q-22 0 -37 15t-15 38z" />
<glyph unicode="&#xcc;" horiz-adv-x="523" d="M49 1828h90l240 -307h-73zM223 0v1434h76v-1434h-76z" />
<glyph unicode="&#xcd;" horiz-adv-x="523" d="M139 1521l239 307h91l-257 -307h-73zM223 0v1434h76v-1434h-76z" />
<glyph unicode="&#xce;" horiz-adv-x="523" d="M-55 1535l272 280h88l273 -280h-79l-238 229l-237 -229h-79zM223 0v1434h76v-1434h-76z" />
<glyph unicode="&#xcf;" horiz-adv-x="523" d="M-3 1672q0 22 14.5 37t37.5 15t38 -15t15 -37t-15 -37.5t-38 -15.5q-22 0 -37 15t-15 38zM223 0v1434h76v-1434h-76zM421 1672q0 22 14.5 37t37.5 15t38 -15t15 -37t-15 -37.5t-38 -15.5q-22 0 -37 15t-15 38z" />
<glyph unicode="&#xd0;" horiz-adv-x="1853" d="M134 686v72h295v676h501q369 0 579.5 -191.5t210.5 -525.5t-210.5 -525.5t-579.5 -191.5h-501v686h-295zM505 73h425q339 0 525 171.5t186 472.5t-186 472.5t-525 171.5h-425v-603h452v-72h-452v-613z" />
<glyph unicode="&#xd1;" horiz-adv-x="1595" d="M223 0v1434h69l1002 -1302v1302h77v-1434h-68l-1003 1302l-1 -1302h-76zM463 1650q40 57 85.5 84t110.5 27q46 0 84.5 -15t61.5 -33t57 -33t71 -15q48 0 83 21.5t69 68.5l44 -41q-40 -57 -85.5 -84t-110.5 -27q-46 0 -84.5 15t-61.5 33.5t-57 33.5t-71 15q-48 0 -83 -22 t-69 -69z" />
<glyph unicode="&#xd2;" horiz-adv-x="1721" d="M134 717q0 212 96.5 379t262 258t368.5 91t368.5 -91t262 -258t96.5 -379t-96.5 -379t-262 -258t-368.5 -91t-368.5 91t-262 258t-96.5 379zM214 717q0 -192 86.5 -343t233.5 -232t327 -81q134 0 253 48t206 132.5t137.5 208t50.5 267.5t-50.5 267t-137.5 208t-206 132.5 t-253 47.5q-180 0 -327 -81t-233.5 -231.5t-86.5 -342.5zM649 1828h90l240 -307h-73z" />
<glyph unicode="&#xd3;" horiz-adv-x="1721" d="M134 717q0 212 96.5 379t262 258t368.5 91t368.5 -91t262 -258t96.5 -379t-96.5 -379t-262 -258t-368.5 -91t-368.5 91t-262 258t-96.5 379zM214 717q0 -192 86.5 -343t233.5 -232t327 -81q134 0 253 48t206 132.5t137.5 208t50.5 267.5t-50.5 267t-137.5 208t-206 132.5 t-253 47.5q-180 0 -327 -81t-233.5 -231.5t-86.5 -342.5zM739 1521l239 307h91l-257 -307h-73z" />
<glyph unicode="&#xd4;" horiz-adv-x="1721" d="M134 717q0 212 96.5 379t262 258t368.5 91t368.5 -91t262 -258t96.5 -379t-96.5 -379t-262 -258t-368.5 -91t-368.5 91t-262 258t-96.5 379zM214 717q0 -192 86.5 -343t233.5 -232t327 -81q134 0 253 48t206 132.5t137.5 208t50.5 267.5t-50.5 267t-137.5 208t-206 132.5 t-253 47.5q-180 0 -327 -81t-233.5 -231.5t-86.5 -342.5zM545 1535l272 280h88l273 -280h-79l-238 229l-237 -229h-79z" />
<glyph unicode="&#xd5;" horiz-adv-x="1721" d="M134 717q0 212 96.5 379t262 258t368.5 91t368.5 -91t262 -258t96.5 -379t-96.5 -379t-262 -258t-368.5 -91t-368.5 91t-262 258t-96.5 379zM214 717q0 -192 86.5 -343t233.5 -232t327 -81q134 0 253 48t206 132.5t137.5 208t50.5 267.5t-50.5 267t-137.5 208t-206 132.5 t-253 47.5q-180 0 -327 -81t-233.5 -231.5t-86.5 -342.5zM527 1650q40 57 86 84t111 27q46 0 84.5 -15t61 -33t56.5 -33t71 -15q48 0 83.5 21.5t69.5 68.5l44 -41q-40 -57 -86 -84t-111 -27q-46 0 -84.5 15t-61 33.5t-56.5 33.5t-71 15q-48 0 -83.5 -22t-69.5 -69z" />
<glyph unicode="&#xd6;" horiz-adv-x="1721" d="M134 717q0 212 96.5 379t262 258t368.5 91t368.5 -91t262 -258t96.5 -379t-96.5 -379t-262 -258t-368.5 -91t-368.5 91t-262 258t-96.5 379zM214 717q0 -192 86.5 -343t233.5 -232t327 -81q134 0 253 48t206 132.5t137.5 208t50.5 267.5t-50.5 267t-137.5 208t-206 132.5 t-253 47.5q-180 0 -327 -81t-233.5 -231.5t-86.5 -342.5zM597 1672q0 22 14.5 37t37.5 15t38 -15t15 -37t-15 -37.5t-38 -15.5q-22 0 -37 15t-15 38zM1021 1672q0 22 14.5 37t37.5 15t38 -15t15 -37t-15 -37.5t-38 -15.5q-22 0 -37 15t-15 38z" />
<glyph unicode="&#xd7;" d="M255 225l310 311l-310 311l47 47l310 -311l316 315l47 -46l-316 -315l316 -316l-47 -47l-317 314l-310 -309z" />
<glyph unicode="&#xd8;" horiz-adv-x="1721" d="M133 40l181 181q-180 201 -180 496q0 212 96.5 379t262 258t368.5 91q291 0 495 -182l181 181l51 -50l-181 -182q181 -202 181 -495q0 -212 -96.5 -379t-262 -258t-368.5 -91q-291 0 -495 182l-182 -181zM214 717q0 -263 156 -441l932 932q-181 164 -441 164 q-180 0 -327 -81t-233.5 -231.5t-86.5 -342.5zM420 225q181 -164 441 -164q134 0 253 48t206 132.5t137.5 208t50.5 267.5q0 262 -156 440z" />
<glyph unicode="&#xd9;" horiz-adv-x="1536" d="M201 555v879h77v-874q0 -122 37.5 -218t104.5 -156.5t155.5 -92t192.5 -31.5t192 31.5t155 92t104.5 156.5t37.5 218v874h77v-879q0 -137 -44.5 -246.5t-122 -178.5t-179.5 -105t-220 -36q-119 0 -221 36t-180 105t-122 178.5t-44 246.5zM556 1828h90l240 -307h-73z" />
<glyph unicode="&#xda;" horiz-adv-x="1536" d="M201 555v879h77v-874q0 -122 37.5 -218t104.5 -156.5t155.5 -92t192.5 -31.5t192 31.5t155 92t104.5 156.5t37.5 218v874h77v-879q0 -137 -44.5 -246.5t-122 -178.5t-179.5 -105t-220 -36q-119 0 -221 36t-180 105t-122 178.5t-44 246.5zM646 1521l239 307h91l-257 -307 h-73z" />
<glyph unicode="&#xdb;" horiz-adv-x="1536" d="M201 555v879h77v-874q0 -122 37.5 -218t104.5 -156.5t155.5 -92t192.5 -31.5t192 31.5t155 92t104.5 156.5t37.5 218v874h77v-879q0 -137 -44.5 -246.5t-122 -178.5t-179.5 -105t-220 -36q-119 0 -221 36t-180 105t-122 178.5t-44 246.5zM452 1535l272 280h88l272 -280 h-78l-238 229l-238 -229h-78z" />
<glyph unicode="&#xdc;" horiz-adv-x="1536" d="M201 555v879h77v-874q0 -122 37.5 -218t104.5 -156.5t155.5 -92t192.5 -31.5t192 31.5t155 92t104.5 156.5t37.5 218v874h77v-879q0 -137 -44.5 -246.5t-122 -178.5t-179.5 -105t-220 -36q-119 0 -221 36t-180 105t-122 178.5t-44 246.5zM504 1672q0 22 15 37t37 15 q23 0 38 -15t15 -37t-15.5 -37.5t-37.5 -15.5t-37 15t-15 38zM928 1672q0 22 15 37t37 15q23 0 38 -15t15 -37t-15.5 -37.5t-37.5 -15.5t-37 15t-15 38z" />
<glyph unicode="&#xdd;" horiz-adv-x="1261" d="M13 1434h92l527 -727l527 727h89l-578 -800v-634h-76v634zM511 1521l239 307h91l-257 -307h-73z" />
<glyph unicode="&#xde;" horiz-adv-x="1366" d="M223 0v1434h76v-282h445q235 0 370.5 -110.5t135.5 -309.5t-135.5 -309.5t-370.5 -110.5h-445v-312h-76zM299 384h444q202 0 315 89.5t113 258.5t-113 258.5t-315 89.5h-444v-696z" />
<glyph unicode="&#xdf;" horiz-adv-x="1233" d="M184 0v1042q0 203 121 323.5t326 120.5q193 0 320 -105.5t127 -283.5q0 -129 -67 -219t-177 -122q128 -30 206.5 -128.5t78.5 -236.5q0 -184 -117.5 -293t-289.5 -109q-149 0 -263 61l20 63q107 -58 233 -58q149 0 246.5 89.5t97.5 246.5q0 147 -103 237t-266 90h-93v65 h71q149 0 250 83t101 231q0 149 -106.5 235t-270.5 86q-167 0 -270 -100.5t-103 -279.5v-1038h-72z" />
<glyph unicode="&#xe0;" horiz-adv-x="1272" d="M116 477q0 211 139 350.5t345 139.5q134 0 240.5 -63.5t167.5 -172.5v224h70v-955h-70v223q-62 -108 -168 -171t-240 -63q-206 0 -345 138.5t-139 349.5zM188 477q0 -179 117 -300t295 -121q177 0 294.5 120.5t117.5 300.5q0 181 -117.5 301.5t-294.5 120.5 q-178 0 -295 -121t-117 -301zM379 1402h90l240 -307h-73z" />
<glyph unicode="&#xe1;" horiz-adv-x="1272" d="M116 477q0 211 139 350.5t345 139.5q134 0 240.5 -63.5t167.5 -172.5v224h70v-955h-70v223q-62 -108 -168 -171t-240 -63q-206 0 -345 138.5t-139 349.5zM188 477q0 -179 117 -300t295 -121q177 0 294.5 120.5t117.5 300.5q0 181 -117.5 301.5t-294.5 120.5 q-178 0 -295 -121t-117 -301zM509 1095l239 307h91l-257 -307h-73z" />
<glyph unicode="&#xe2;" horiz-adv-x="1272" d="M116 477q0 211 139 350.5t345 139.5q134 0 240.5 -63.5t167.5 -172.5v224h70v-955h-70v223q-62 -108 -168 -171t-240 -63q-206 0 -345 138.5t-139 349.5zM188 477q0 -179 117 -300t295 -121q177 0 294.5 120.5t117.5 300.5q0 181 -117.5 301.5t-294.5 120.5 q-178 0 -295 -121t-117 -301zM298 1109l272 280h88l273 -280h-79l-238 229l-237 -229h-79z" />
<glyph unicode="&#xe3;" horiz-adv-x="1272" d="M116 477q0 211 139 350.5t345 139.5q134 0 240.5 -63.5t167.5 -172.5v224h70v-955h-70v223q-62 -108 -168 -171t-240 -63q-206 0 -345 138.5t-139 349.5zM188 477q0 -179 117 -300t295 -121q177 0 294.5 120.5t117.5 300.5q0 181 -117.5 301.5t-294.5 120.5 q-178 0 -295 -121t-117 -301zM296 1224q40 57 86 84t111 27q46 0 84.5 -15t61 -33t56.5 -33t71 -15q48 0 83.5 21.5t69.5 68.5l44 -41q-40 -57 -86 -84t-111 -27q-46 0 -84.5 15t-61 33.5t-56.5 33.5t-71 15q-48 0 -83.5 -22t-69.5 -69z" />
<glyph unicode="&#xe4;" horiz-adv-x="1272" d="M116 477q0 211 139 350.5t345 139.5q134 0 240.5 -63.5t167.5 -172.5v224h70v-955h-70v223q-62 -108 -168 -171t-240 -63q-206 0 -345 138.5t-139 349.5zM188 477q0 -179 117 -300t295 -121q177 0 294.5 120.5t117.5 300.5q0 181 -117.5 301.5t-294.5 120.5 q-178 0 -295 -121t-117 -301zM350 1246q0 22 15 37t37 15q23 0 38.5 -15t15.5 -37t-15.5 -37.5t-38.5 -15.5q-22 0 -37 15t-15 38zM774 1246q0 22 15 37t37 15q23 0 38.5 -15t15.5 -37t-15.5 -37.5t-38.5 -15.5q-22 0 -37 15t-15 38z" />
<glyph unicode="&#xe5;" horiz-adv-x="1272" d="M116 477q0 211 139 350.5t345 139.5q134 0 240.5 -63.5t167.5 -172.5v224h70v-955h-70v223q-62 -108 -168 -171t-240 -63q-206 0 -345 138.5t-139 349.5zM188 477q0 -179 117 -300t295 -121q177 0 294.5 120.5t117.5 300.5q0 181 -117.5 301.5t-294.5 120.5 q-178 0 -295 -121t-117 -301zM410 1286q0 83 60 143.5t144 60.5q83 0 143.5 -60.5t60.5 -143.5q0 -84 -60 -143.5t-144 -59.5t-144 59.5t-60 143.5zM467 1286q0 -62 42.5 -104.5t104.5 -42.5t104.5 42.5t42.5 104.5t-42.5 105t-104.5 43t-104.5 -43t-42.5 -105z" />
<glyph unicode="&#xe6;" horiz-adv-x="1887" d="M116 254q0 124 101 194t291 70h348v52q0 170 -89 249t-247 79q-170 0 -309 -107l-38 53q150 123 352 123q154 0 254.5 -66t130.5 -203q51 121 164.5 195t250.5 74q189 0 316.5 -136.5t131.5 -346.5v-16q0 -10 -1 -15h-843q8 -180 120 -288.5t282 -108.5q203 0 348 154 l43 -49q-156 -172 -395 -172q-134 0 -238.5 58t-166.5 163q-74 -102 -189.5 -161.5t-250.5 -59.5q-169 0 -267.5 72t-98.5 193zM191 254q0 -90 78.5 -144t212.5 -54q121 0 230 58t179 159q-34 81 -38 180h-334q-166 0 -247 -52.5t-81 -146.5zM929 518h768 q-10 165 -115.5 273t-257.5 108q-161 0 -271 -107.5t-124 -273.5z" />
<glyph unicode="&#xe7;" horiz-adv-x="1045" d="M116 477q0 210 137 350t346 140q213 0 349 -147l-46 -48q-127 127 -305 127q-175 0 -292 -120t-117 -302q0 -181 117 -301t292 -120q179 0 306 127l45 -48q-135 -146 -349 -146q-209 0 -346 139t-137 349zM457 -333l109 338l71 -2l-106 -336h-74z" />
<glyph unicode="&#xe8;" horiz-adv-x="1149" d="M116 477q0 211 136 350.5t336 139.5q189 0 316 -136t131 -347q0 -6 -0.5 -16t-0.5 -15h-844q8 -179 121.5 -288t284.5 -109q199 0 346 154l43 -49q-154 -172 -393 -172q-208 0 -342 136.5t-134 351.5zM190 518h769q-10 165 -115.5 273t-256.5 108q-160 0 -271.5 -107.5 t-125.5 -273.5zM352 1402h90l240 -307h-73z" />
<glyph unicode="&#xe9;" horiz-adv-x="1149" d="M116 477q0 211 136 350.5t336 139.5q189 0 316 -136t131 -347q0 -6 -0.5 -16t-0.5 -15h-844q8 -179 121.5 -288t284.5 -109q199 0 346 154l43 -49q-154 -172 -393 -172q-208 0 -342 136.5t-134 351.5zM190 518h769q-10 165 -115.5 273t-256.5 108q-160 0 -271.5 -107.5 t-125.5 -273.5zM482 1095l239 307h91l-257 -307h-73z" />
<glyph unicode="&#xea;" horiz-adv-x="1149" d="M116 477q0 211 136 350.5t336 139.5q189 0 316 -136t131 -347q0 -6 -0.5 -16t-0.5 -15h-844q8 -179 121.5 -288t284.5 -109q199 0 346 154l43 -49q-154 -172 -393 -172q-208 0 -342 136.5t-134 351.5zM190 518h769q-10 165 -115.5 273t-256.5 108q-160 0 -271.5 -107.5 t-125.5 -273.5zM271 1109l273 280h88l272 -280h-79l-237 229l-238 -229h-79z" />
<glyph unicode="&#xeb;" horiz-adv-x="1149" d="M116 477q0 211 136 350.5t336 139.5q189 0 316 -136t131 -347q0 -6 -0.5 -16t-0.5 -15h-844q8 -179 121.5 -288t284.5 -109q199 0 346 154l43 -49q-154 -172 -393 -172q-208 0 -342 136.5t-134 351.5zM190 518h769q-10 165 -115.5 273t-256.5 108q-160 0 -271.5 -107.5 t-125.5 -273.5zM324 1246q0 22 15 37t37 15q23 0 38 -15t15 -37t-15.5 -37.5t-37.5 -15.5t-37 15t-15 38zM748 1246q0 22 15 37t37 15q23 0 38 -15t15 -37t-15.5 -37.5t-37.5 -15.5t-37 15t-15 38z" />
<glyph unicode="&#xec;" horiz-adv-x="460" d="M-5 1402h90l240 -307h-73zM195 0v955h71v-955h-71z" />
<glyph unicode="&#xed;" horiz-adv-x="460" d="M125 1095l239 307h91l-257 -307h-73zM195 0v955h71v-955h-71z" />
<glyph unicode="&#xee;" horiz-adv-x="460" d="M-86 1109l272 280h88l273 -280h-79l-238 229l-237 -229h-79zM195 0v955h71v-955h-71z" />
<glyph unicode="&#xef;" horiz-adv-x="460" d="M-34 1246q0 22 15 37t37 15q23 0 38.5 -15t15.5 -37t-15.5 -37.5t-38.5 -15.5q-22 0 -37 15t-15 38zM195 0v955h71v-955h-71zM390 1246q0 22 15 37t37 15q23 0 38.5 -15t15.5 -37t-15.5 -37.5t-38.5 -15.5q-22 0 -37 15t-15 38z" />
<glyph unicode="&#xf0;" horiz-adv-x="1206" d="M116 477q0 209 139.5 349.5t346.5 140.5q198 0 333 -129q-105 206 -307 381l-276 -157l-31 52l256 146q-121 94 -264 163l32 59q155 -73 294 -186l276 156l32 -52l-258 -147q177 -162 290 -362t113 -414q0 -208 -140.5 -348t-349.5 -140q-207 0 -346.5 140t-139.5 348z M188 477q0 -181 119 -301t295 -120q178 0 297.5 119.5t119.5 301.5t-119.5 302t-297.5 120q-176 0 -295 -120.5t-119 -301.5z" />
<glyph unicode="&#xf1;" horiz-adv-x="1220" d="M195 0v955h70v-183q54 90 146 142.5t212 52.5q193 0 304 -110t111 -297v-560h-70v560q0 155 -92 247t-260 92q-154 0 -252 -99t-98 -247v-553h-71zM306 1224q40 57 86 84t111 27q46 0 84.5 -15t61 -33t56.5 -33t71 -15q48 0 83.5 21.5t69.5 68.5l44 -41q-40 -57 -86 -84 t-111 -27q-46 0 -84.5 15t-61 33.5t-56.5 33.5t-71 15q-48 0 -83.5 -22t-69.5 -69z" />
<glyph unicode="&#xf2;" horiz-adv-x="1206" d="M116 477q0 209 139.5 349.5t346.5 140.5q209 0 349.5 -140.5t140.5 -349.5t-140.5 -348.5t-349.5 -139.5q-207 0 -346.5 139.5t-139.5 348.5zM188 477q0 -181 119 -301t295 -120q178 0 297.5 120t119.5 301q0 182 -119.5 302t-297.5 120q-176 0 -295 -120.5t-119 -301.5z M368 1402h90l239 -307h-72z" />
<glyph unicode="&#xf3;" horiz-adv-x="1206" d="M116 477q0 209 139.5 349.5t346.5 140.5q209 0 349.5 -140.5t140.5 -349.5t-140.5 -348.5t-349.5 -139.5q-207 0 -346.5 139.5t-139.5 348.5zM188 477q0 -181 119 -301t295 -120q178 0 297.5 120t119.5 301q0 182 -119.5 302t-297.5 120q-176 0 -295 -120.5t-119 -301.5z M498 1095l238 307h91l-257 -307h-72z" />
<glyph unicode="&#xf4;" horiz-adv-x="1206" d="M116 477q0 209 139.5 349.5t346.5 140.5q209 0 349.5 -140.5t140.5 -349.5t-140.5 -348.5t-349.5 -139.5q-207 0 -346.5 139.5t-139.5 348.5zM188 477q0 -181 119 -301t295 -120q178 0 297.5 120t119.5 301q0 182 -119.5 302t-297.5 120q-176 0 -295 -120.5t-119 -301.5z M287 1109l272 280h88l273 -280h-79l-238 229l-237 -229h-79z" />
<glyph unicode="&#xf5;" horiz-adv-x="1206" d="M116 477q0 209 139.5 349.5t346.5 140.5q209 0 349.5 -140.5t140.5 -349.5t-140.5 -348.5t-349.5 -139.5q-207 0 -346.5 139.5t-139.5 348.5zM188 477q0 -181 119 -301t295 -120q178 0 297.5 120t119.5 301q0 182 -119.5 302t-297.5 120q-176 0 -295 -120.5t-119 -301.5z M285 1224q40 57 85.5 84t110.5 27q46 0 84.5 -15t61.5 -33t57 -33t71 -15q48 0 83 21.5t69 68.5l44 -41q-40 -57 -85.5 -84t-110.5 -27q-46 0 -84.5 15t-61.5 33.5t-57 33.5t-71 15q-48 0 -83 -22t-69 -69z" />
<glyph unicode="&#xf6;" horiz-adv-x="1206" d="M116 477q0 209 139.5 349.5t346.5 140.5q209 0 349.5 -140.5t140.5 -349.5t-140.5 -348.5t-349.5 -139.5q-207 0 -346.5 139.5t-139.5 348.5zM188 477q0 -181 119 -301t295 -120q178 0 297.5 120t119.5 301q0 182 -119.5 302t-297.5 120q-176 0 -295 -120.5t-119 -301.5z M339 1246q0 22 14.5 37t37.5 15t38 -15t15 -37t-15 -37.5t-38 -15.5q-22 0 -37 15t-15 38zM763 1246q0 22 14.5 37t37.5 15t38 -15t15 -37t-15 -37.5t-38 -15.5q-22 0 -37 15t-15 38z" />
<glyph unicode="&#xf8;" horiz-adv-x="1206" d="M108 26l125 126q-117 136 -117 325q0 209 139.5 349.5t346.5 140.5q189 0 327 -120l126 126l45 -43l-127 -127q119 -136 119 -326q0 -209 -140.5 -348.5t-349.5 -139.5q-188 0 -324 119l-126 -126zM188 477q0 -159 96 -275l596 596q-115 101 -278 101q-176 0 -295 -120.5 t-119 -301.5zM327 157q115 -101 275 -101q178 0 297.5 120t119.5 301q0 160 -96 276z" />
<glyph unicode="&#xf9;" horiz-adv-x="1208" d="M183 390v565h71v-559q0 -158 96 -249t254 -91t254 91t96 249v559h72v-565q0 -187 -118 -294t-304 -107t-303.5 107t-117.5 294zM369 1402h90l239 -307h-72z" />
<glyph unicode="&#xfa;" horiz-adv-x="1208" d="M183 390v565h71v-559q0 -158 96 -249t254 -91t254 91t96 249v559h72v-565q0 -187 -118 -294t-304 -107t-303.5 107t-117.5 294zM499 1095l238 307h91l-257 -307h-72z" />
<glyph unicode="&#xfb;" horiz-adv-x="1208" d="M183 390v565h71v-559q0 -158 96 -249t254 -91t254 91t96 249v559h72v-565q0 -187 -118 -294t-304 -107t-303.5 107t-117.5 294zM288 1109l272 280h88l273 -280h-79l-238 229l-237 -229h-79z" />
<glyph unicode="&#xfc;" horiz-adv-x="1208" d="M183 390v565h71v-559q0 -158 96 -249t254 -91t254 91t96 249v559h72v-565q0 -187 -118 -294t-304 -107t-303.5 107t-117.5 294zM340 1246q0 22 15 37t37 15q23 0 38 -15t15 -37t-15.5 -37.5t-37.5 -15.5t-37 15t-15 38zM764 1246q0 22 15 37t37 15q23 0 38 -15t15 -37 t-15.5 -37.5t-37.5 -15.5t-37 15t-15 38z" />
<glyph unicode="&#xfd;" horiz-adv-x="1019" d="M28 955h81l420 -663l393 663h78l-809 -1367h-79l377 633zM410 1095l238 307h91l-257 -307h-72z" />
<glyph unicode="&#xfe;" horiz-adv-x="1272" d="M195 -410v1885h71v-743q62 108 167.5 171.5t239.5 63.5q206 0 345.5 -139.5t139.5 -350.5q0 -210 -139 -349t-346 -139q-134 0 -240 63t-167 170v-632h-71zM261 477q0 -180 118 -300.5t294 -120.5q178 0 294.5 120.5t116.5 300.5t-117 301t-294 121q-176 0 -294 -120.5 t-118 -301.5z" />
<glyph unicode="&#xff;" horiz-adv-x="1019" d="M28 955h81l420 -663l393 663h78l-809 -1367h-79l377 633zM251 1246q0 22 14.5 37t37.5 15t38 -15t15 -37t-15 -37.5t-38 -15.5q-22 0 -37 15t-15 38zM675 1246q0 22 14.5 37t37.5 15t38 -15t15 -37t-15 -37.5t-38 -15.5q-22 0 -37 15t-15 38z" />
<glyph unicode="&#x152;" horiz-adv-x="2316" d="M134 717q0 335 210.5 526t580.5 191h1208v-72h-880v-604h857v-72h-857v-614h884v-72h-1212q-370 0 -580.5 191t-210.5 526zM214 717q0 -301 186.5 -472.5t524.5 -171.5h253v1288h-253q-338 0 -524.5 -171.5t-186.5 -472.5z" />
<glyph unicode="&#x153;" horiz-adv-x="2050" d="M116 477q0 209 139.5 349.5t346.5 140.5q156 0 277.5 -80.5t175.5 -214.5q52 135 169 215t267 80q188 0 314 -136.5t130 -346.5v-16q0 -10 -1 -15h-842q8 -180 120 -288.5t282 -108.5q203 0 348 154l43 -49q-156 -172 -395 -172q-153 0 -268.5 78t-167.5 213 q-54 -133 -175 -212t-277 -79q-207 0 -346.5 139.5t-139.5 348.5zM188 477q0 -181 119 -301t295 -120t296.5 120t120.5 301t-120 301.5t-297 120.5q-176 0 -295 -120.5t-119 -301.5zM1092 518h768q-10 165 -115.5 273t-257.5 108q-161 0 -271 -107.5t-124 -273.5z" />
<glyph unicode="&#x178;" horiz-adv-x="1261" d="M13 1434h92l527 -727l527 727h89l-578 -800v-634h-76v634zM369 1672q0 22 14.5 37t37.5 15t38 -15t15 -37t-15 -37.5t-38 -15.5q-22 0 -37 15t-15 38zM793 1672q0 22 14.5 37t37.5 15t38 -15t15 -37t-15 -37.5t-38 -15.5q-22 0 -37 15t-15 38z" />
<glyph unicode="&#x2000;" horiz-adv-x="958" />
<glyph unicode="&#x2001;" horiz-adv-x="1916" />
<glyph unicode="&#x2002;" horiz-adv-x="958" />
<glyph unicode="&#x2003;" horiz-adv-x="1916" />
<glyph unicode="&#x2004;" horiz-adv-x="638" />
<glyph unicode="&#x2005;" horiz-adv-x="479" />
<glyph unicode="&#x2006;" horiz-adv-x="319" />
<glyph unicode="&#x2007;" horiz-adv-x="319" />
<glyph unicode="&#x2008;" horiz-adv-x="239" />
<glyph unicode="&#x2009;" horiz-adv-x="383" />
<glyph unicode="&#x200a;" horiz-adv-x="106" />
<glyph unicode="&#x2010;" horiz-adv-x="849" d="M157 504v65h536v-65h-536z" />
<glyph unicode="&#x2011;" horiz-adv-x="849" d="M157 504v65h536v-65h-536z" />
<glyph unicode="&#x2012;" horiz-adv-x="849" d="M157 504v65h536v-65h-536z" />
<glyph unicode="&#x2013;" horiz-adv-x="1241" d="M134 504v65h973v-65h-973z" />
<glyph unicode="&#x2014;" horiz-adv-x="1670" d="M68 504v65h1536v-65h-1536z" />
<glyph unicode="&#x2018;" horiz-adv-x="491" d="M175 1008l87 467h63l-68 -467h-82z" />
<glyph unicode="&#x2019;" horiz-adv-x="491" d="M167 1008l67 467h82l-87 -467h-62z" />
<glyph unicode="&#x201a;" horiz-adv-x="491" d="M167 -244l67 467h82l-87 -467h-62z" />
<glyph unicode="&#x201c;" horiz-adv-x="806" d="M175 1008l87 467h63l-68 -467h-82zM490 1008l88 467h62l-68 -467h-82z" />
<glyph unicode="&#x201d;" horiz-adv-x="805" d="M167 1008l67 467h82l-87 -467h-62zM481 1008l68 467h82l-87 -467h-63z" />
<glyph unicode="&#x201e;" horiz-adv-x="805" d="M167 -244l67 467h82l-87 -467h-62zM481 -244l68 467h82l-87 -467h-63z" />
<glyph unicode="&#x2022;" horiz-adv-x="906" d="M304 537q0 63 43.5 106t106.5 43q62 0 105.5 -43t43.5 -106q0 -62 -44 -106t-105 -44q-63 0 -106.5 44t-43.5 106z" />
<glyph unicode="&#x202f;" horiz-adv-x="383" />
<glyph unicode="&#x2039;" horiz-adv-x="624" d="M158 537l199 365h78l-199 -365l199 -366h-78z" />
<glyph unicode="&#x203a;" horiz-adv-x="624" d="M189 171l200 366l-200 365h78l200 -365l-200 -366h-78z" />
<glyph unicode="&#x205f;" horiz-adv-x="479" />
<glyph unicode="&#x20ac;" horiz-adv-x="1433" d="M83 525v65h164q-6 62 -6 127t6 127h-164v64h173q43 250 199.5 393.5t398.5 143.5q166 0 294 -71.5t201 -198.5l-51 -51q-66 118 -179.5 185t-265.5 67q-211 0 -345 -124t-176 -344h741v-64h-750q-8 -66 -8 -127q0 -63 8 -127h750v-65h-741q42 -220 176.5 -344t345.5 -124 q151 0 264.5 67t179.5 185l50 -48q-74 -129 -201 -200.5t-293 -71.5q-243 0 -399 143t-199 393h-173z" />
<glyph unicode="&#x2122;" horiz-adv-x="1272" d="M90 1384v50h435v-50h-190v-475h-53v475h-192zM629 909v526h72l205 -401l204 401h73v-526h-54v451l-196 -388h-53l-198 388v-451h-53z" />
<glyph unicode="&#x25fc;" horiz-adv-x="957" d="M0 0v957h957v-957h-957z" />
<glyph unicode="&#xfb01;" horiz-adv-x="1372" d="M58 890v65h256v166q0 365 314 365q140 0 254 -72l-27 -59q-98 63 -223 63q-130 0 -188.5 -76.5t-58.5 -220.5v-166h452v-65h-452v-890h-71v890h-256zM1090 1306q0 23 15 38t37 15t37.5 -15.5t15.5 -37.5t-15.5 -37.5t-37.5 -15.5t-37 15t-15 38zM1106 0v955h72v-955h-72z " />
<glyph unicode="&#xfb02;" horiz-adv-x="1372" d="M58 890v65h256v166q0 365 314 365q140 0 254 -72l-27 -59q-98 63 -223 63q-130 0 -188.5 -76.5t-58.5 -220.5v-166h452v-65h-452v-890h-71v890h-256zM1106 0v1475h72v-1475h-72z" />
<glyph unicode="&#xfb03;" horiz-adv-x="2248" d="M58 890v65h256v166q0 365 314 365q140 0 254 -72l-27 -59q-98 63 -223 63q-130 0 -188.5 -76.5t-58.5 -220.5v-166h452v-65h-452v-890h-71v890h-256zM935 890v65h256v166q0 365 313 365q140 0 254 -72l-26 -59q-98 63 -224 63q-130 0 -188 -76t-58 -221v-166h451v-65 h-451v-890h-71v890h-256zM1966 1306q0 23 15 38t37 15q23 0 38.5 -15.5t15.5 -37.5t-15.5 -37.5t-38.5 -15.5q-22 0 -37 15t-15 38zM1982 0v955h72v-955h-72z" />
<glyph unicode="&#xfb04;" horiz-adv-x="2248" d="M58 890v65h256v166q0 365 314 365q140 0 254 -72l-27 -59q-98 63 -223 63q-130 0 -188.5 -76.5t-58.5 -220.5v-166h452v-65h-452v-890h-71v890h-256zM935 890v65h256v166q0 365 313 365q140 0 254 -72l-26 -59q-98 63 -224 63q-130 0 -188 -76t-58 -221v-166h451v-65 h-451v-890h-71v890h-256zM1982 0v1475h72v-1475h-72z" />
</font>
</defs>
</svg>
