<?xml version="1.0" standalone="no"?>
<!DOCTYPE svg PUBLIC "-//W3C//DTD SVG 1.1//EN" "http://www.w3.org/Graphics/SVG/1.1/DTD/svg11.dtd" >
<svg xmlns="http://www.w3.org/2000/svg">
<metadata></metadata>
<defs>
<font id="mark-book-italicbook" horiz-adv-x="1228" >
<font-face units-per-em="2048" ascent="1618" descent="-430" />
<missing-glyph horiz-adv-x="547" />
<glyph unicode="&#x2e;&#x2e;&#x2e;" horiz-adv-x="1541" d="M45 121q0 57 42 98.5t98 41.5t98 -41.5t42 -98.5q0 -56 -42 -98.5t-98 -42.5t-98 42.5t-42 98.5zM556 121q0 57 42 98.5t98 41.5q57 0 99 -41.5t42 -98.5q0 -56 -42.5 -98.5t-98.5 -42.5t-98 42.5t-42 98.5zM1067 121q0 57 42 98.5t98 41.5q57 0 99 -41.5t42 -98.5 q0 -56 -42.5 -98.5t-98.5 -42.5t-98 42.5t-42 98.5z" />
<glyph horiz-adv-x="0" />
<glyph horiz-adv-x="682" />
<glyph unicode=" "  horiz-adv-x="547" />
<glyph unicode="&#x09;" horiz-adv-x="547" />
<glyph unicode="&#xa0;" horiz-adv-x="547" />
<glyph unicode="!" horiz-adv-x="519" d="M49 121q0 57 42 98.5t98 41.5t98 -41.5t42 -98.5q0 -56 -42 -98.5t-98 -42.5t-98 42.5t-42 98.5zM184 460l173 974h206l-234 -974h-145z" />
<glyph unicode="&#x22;" horiz-adv-x="1061" d="M371 946l111 529h168l-111 -529h-168zM721 946l112 529h167l-111 -529h-168z" />
<glyph unicode="#" horiz-adv-x="1430" d="M94 381l50 148h233l128 381h-234l51 150h233l126 374h158l-126 -374h335l126 374h156l-126 -374h233l-52 -150h-231l-128 -381h231l-49 -148h-231l-128 -381h-157l128 381h-335l-128 -381h-157l128 381h-234zM535 529h334l128 381h-334z" />
<glyph unicode="$" horiz-adv-x="1433" d="M153 198l102 139q119 -115 337 -153l97 460l-7 1q-174 32 -270 119t-96 228q0 83 32 159t94 137.5t164.5 98.5t231.5 37h16l41 192h156l-44 -206q192 -31 352 -145l-96 -140q-126 90 -290 123l-99 -462q377 -74 377 -347q0 -185 -147 -306t-394 -123l-42 -199h-155 l44 211q-252 43 -404 176zM499 1014q0 -81 55.5 -129t170.5 -72l94 449q-82 -1 -146 -23t-100.5 -58t-55 -78.5t-18.5 -88.5zM744 175q149 8 238 75.5t89 169.5q0 76 -57 123t-175 73z" />
<glyph unicode="%" horiz-adv-x="2026" d="M215 1052q0 165 115 283.5t282 118.5q152 0 251 -97t99 -248q0 -165 -115 -283.5t-282 -118.5q-153 0 -251.5 97t-98.5 248zM373 1060q0 -90 56 -148t143 -58q100 0 166 72t66 174q0 91 -56.5 149t-143.5 58q-100 0 -165.5 -72t-65.5 -175zM429 0l1080 1434h187 l-1081 -1434h-186zM1162 324q0 165 115.5 283.5t282.5 118.5q152 0 250.5 -97t98.5 -248q0 -165 -115 -284t-282 -119q-153 0 -251.5 97.5t-98.5 248.5zM1320 333q0 -91 56.5 -149t143.5 -58q100 0 165.5 72t65.5 175q0 90 -56.5 148t-143.5 58q-100 0 -165.5 -72 t-65.5 -174z" />
<glyph unicode="&#x26;" horiz-adv-x="1424" d="M76 317q0 66 21 125.5t53.5 104.5t84 89.5t99.5 75.5t113 67q-69 94 -99.5 166t-30.5 147q0 71 23.5 134.5t69 115t119.5 82t168 30.5q151 0 250 -83t99 -209q0 -58 -20.5 -111t-51.5 -93t-82 -81.5t-96 -70.5t-109 -65l236 -297l264 329l121 -88l-289 -360l259 -325 h-218l-154 194q-97 -101 -201 -157.5t-233 -56.5q-177 0 -286.5 90.5t-109.5 246.5zM254 333q0 -90 66 -146t169 -56q91 0 166.5 44.5t157.5 136.5l-273 346q-67 -38 -112 -69.5t-88 -72t-64.5 -86.5t-21.5 -97zM492 1087q0 -44 23 -94.5t82 -131.5q65 35 108 62.5t84 63.5 t61 75.5t20 83.5q0 71 -47.5 112.5t-133.5 41.5q-96 0 -146.5 -60.5t-50.5 -152.5z" />
<glyph unicode="'" horiz-adv-x="711" d="M371 946l111 529h168l-111 -529h-168z" />
<glyph unicode="(" horiz-adv-x="780" d="M140 415q0 224 81.5 438t236.5 378.5t354 230.5l57 -149q-123 -42 -227 -135t-173.5 -214.5t-108.5 -263t-39 -282.5q0 -361 248 -562l-87 -145q-342 257 -342 704z" />
<glyph unicode=")" horiz-adv-x="780" d="M-48 -147q163 56 290 198t193 324.5t66 372.5q0 360 -249 562l87 144q342 -257 342 -703q0 -223 -81.5 -438t-237 -380.5t-353.5 -229.5z" />
<glyph unicode="*" horiz-adv-x="911" d="M248 1201l63 118l240 -112l56 268h129l-59 -283l273 58l14 -126l-276 -57l107 -221l-115 -64l-107 222l-195 -197l-89 86l195 198z" />
<glyph unicode="+" d="M150 467l31 151h371l80 375h154l-79 -375h372l-31 -151h-374l-79 -372h-155l79 372h-369z" />
<glyph unicode="," horiz-adv-x="497" d="M-41 -268l172 527h196l-213 -527h-155z" />
<glyph unicode="-" horiz-adv-x="835" d="M131 467l32 151h564l-32 -151h-564z" />
<glyph unicode="." horiz-adv-x="519" d="M45 121q0 56 42 97.5t98 41.5t98 -41.5t42 -97.5q0 -57 -41.5 -99t-98.5 -42t-98.5 42t-41.5 99z" />
<glyph unicode="/" horiz-adv-x="1019" d="M-124 -205l1089 1782h191l-1088 -1782h-192z" />
<glyph unicode="0" d="M106 488q0 187 46 360t129.5 308t210.5 216t278 81q207 0 329 -132t122 -376q0 -149 -28.5 -290.5t-86 -263.5t-136 -213.5t-185.5 -144t-229 -52.5q-207 0 -328.5 132t-121.5 375zM286 505q0 -176 73 -267.5t204 -91.5q108 0 200 68.5t151.5 180t93 250.5t33.5 284 q0 175 -73.5 266.5t-202.5 91.5q-109 0 -201 -68t-152 -180t-93 -250.5t-33 -283.5z" />
<glyph unicode="1" d="M93 0l35 165h374l222 1049l-427 -130l39 181l612 187l-273 -1287h387l-35 -165h-934z" />
<glyph unicode="2" d="M88 0l28 135l618 552q127 114 181 198t54 176q0 93 -64.5 160t-184.5 67q-92 0 -174 -48.5t-142 -125.5l-112 108q69 96 185.5 164t253.5 68q102 0 184 -31.5t132 -85.5t76 -121t26 -141q0 -132 -72 -247t-218 -244l-474 -419h626l-36 -165h-887z" />
<glyph unicode="3" d="M75 162l119 114q54 -66 141 -100.5t188 -34.5q167 0 261 85t94 210q0 98 -75.5 153t-201.5 55h-175l35 159h160q160 0 263 85t103 198q0 92 -72.5 149t-186.5 57q-104 0 -188.5 -47t-144.5 -120l-109 119q173 210 458 210q192 0 307.5 -96.5t115.5 -249.5 q0 -128 -74 -231.5t-209 -158.5q81 -43 125.5 -114.5t44.5 -165.5q0 -194 -147 -326t-386 -132q-151 0 -266 48t-180 134z" />
<glyph unicode="4" d="M52 296l29 139l698 997h204l-682 -972h436l84 396h174l-85 -396h239l-35 -164h-238l-64 -296h-173l63 296h-650z" />
<glyph unicode="5" d="M80 204l130 101q119 -161 338 -161q137 0 229.5 71.5t111.5 187.5q5 46 3 89t-24 81t-57 66t-95.5 44.5t-140.5 16.5h-316l172 734h757l-34 -164h-597l-98 -406h159q89 0 163 -18t125 -50.5t89.5 -77t55.5 -97.5t23 -111.5t-7 -119.5q-26 -138 -105 -232.5t-185.5 -136 t-235.5 -41.5q-306 0 -461 224z" />
<glyph unicode="6" d="M101 419q0 93 35.5 183.5t119.5 195.5l507 636h218l-438 -538q58 23 122 23q124 0 228 -55.5t166 -156t62 -223.5q0 -136 -68 -251t-191 -183t-275 -68q-135 0 -245.5 53.5t-175.5 154.5t-65 229zM282 427q0 -126 88 -206t227 -80q149 0 246.5 97t97.5 236 q0 128 -89.5 206t-223.5 78q-152 0 -249 -96t-97 -235z" />
<glyph unicode="7" d="M246 0l794 1270h-755l33 164h957l-27 -143l-796 -1291h-206z" />
<glyph unicode="8" d="M67 333q0 139 89 246.5t250 153.5q-176 89 -176 264q0 91 37.5 173t106.5 145.5t175 101t234 37.5q115 0 216.5 -41.5t167.5 -125t66 -190.5q0 -128 -86.5 -231t-238.5 -152q96 -44 151.5 -116t55.5 -167q0 -194 -159 -322.5t-415 -128.5q-128 0 -234.5 41.5t-173 123 t-66.5 188.5zM252 357q0 -99 85.5 -158t212.5 -59q173 0 278.5 82t105.5 206q0 99 -87 158.5t-218 59.5q-171 0 -274 -83t-103 -206zM413 1007q0 -96 75 -152.5t197 -56.5q163 0 264 80.5t101 197.5q0 98 -82.5 157t-195.5 59q-166 0 -262.5 -81.5t-96.5 -203.5z" />
<glyph unicode="9" horiz-adv-x="1229" d="M206 949q0 102 40.5 194t110 160.5t170 108.5t214.5 40q135 0 245.5 -53.5t175.5 -154.5t65 -229q0 -184 -156 -379l-507 -636h-218l438 537q-60 -22 -121 -22q-190 0 -323.5 124t-133.5 310zM386 959q0 -128 89.5 -205.5t223.5 -77.5q153 0 250.5 96t97.5 235 q0 126 -89 205.5t-227 79.5q-149 0 -247 -97t-98 -236z" />
<glyph unicode=":" horiz-adv-x="519" d="M41 121q0 57 42 98.5t98 41.5q57 0 99 -41.5t42 -98.5q0 -56 -42.5 -98.5t-98.5 -42.5t-98 42.5t-42 98.5zM198 854q0 56 42 97.5t98 41.5t98 -41.5t42 -97.5q0 -58 -42 -99.5t-98 -41.5t-98 41.5t-42 99.5z" />
<glyph unicode=";" horiz-adv-x="497" d="M-41 -268l172 527h196l-213 -527h-155zM178 854q0 56 42 97.5t98 41.5t98 -41.5t42 -97.5q0 -58 -42 -99.5t-98 -41.5t-98 41.5t-42 99.5z" />
<glyph unicode="&#x3c;" d="M199 461l34 165l895 383l-41 -192l-700 -287l579 -286l-36 -166z" />
<glyph unicode="=" d="M120 273l33 153h898l-33 -153h-898zM202 659l32 153h899l-33 -153h-898z" />
<glyph unicode="&#x3e;" d="M132 78l41 191l700 287l-578 287l36 166l731 -383l-35 -165z" />
<glyph unicode="?" horiz-adv-x="868" d="M76 121q0 56 42 97.5t98 41.5t98 -41.5t42 -97.5q0 -57 -42 -99t-98 -42t-98 42t-42 99zM201 460l68 323h92q176 0 267.5 71.5t91.5 192.5q0 111 -100.5 172t-262.5 61q-8 0 -74 -3l8 172q37 4 98 4q229 0 374.5 -105t145.5 -279q0 -189 -132.5 -308t-379.5 -135 l-44 -166h-152z" />
<glyph unicode="@" horiz-adv-x="1957" d="M157 416q0 185 69 353.5t189 293.5t292 198.5t369 73.5q211 0 380 -85.5t267 -244t98 -361.5q0 -240 -107.5 -396.5t-276.5 -156.5q-86 0 -142 39t-81 100q-114 -127 -282 -127q-161 0 -263.5 101.5t-102.5 260.5q0 121 55.5 226t154 167.5t215.5 62.5q95 0 167.5 -38.5 t113.5 -109.5l27 131h144l-98 -455q-12 -58 -12 -89q0 -68 31 -102.5t85 -34.5q96 0 158 118.5t62 299.5q0 252 -169 406t-435 154q-162 0 -304 -62.5t-240 -168t-154.5 -248t-56.5 -299.5q0 -186 80 -325t218 -210.5t313 -71.5q218 0 389 114l69 -109q-204 -139 -470 -139 q-215 0 -386 91.5t-268.5 259.5t-97.5 383zM715 475q0 -107 64 -171.5t167 -64.5q121 0 204 91t83 218q0 106 -65.5 170.5t-168.5 64.5q-120 0 -202 -91t-82 -217z" />
<glyph unicode="A" horiz-adv-x="1462" d="M-60 0l878 1435h224l274 -1435h-187l-72 391h-684l-238 -391h-195zM476 562h550l-128 694z" />
<glyph unicode="B" horiz-adv-x="1408" d="M91 0l305 1434h528q204 0 328 -88t124 -252q0 -129 -72 -230.5t-199 -143.5q99 -42 147 -138q32 -62 32 -134q0 -39 -9 -80q-20 -89 -59 -154t-91 -106t-126 -65t-154 -33.5t-185 -9.5h-569zM311 169h377q176 0 274 46t125 165q8 36 8 67q0 86 -59 132q-80 63 -246 63 h-378zM447 810h353q204 0 298 72t94 194q0 99 -83.5 144t-218.5 45h-345z" />
<glyph unicode="C" horiz-adv-x="1510" d="M162 652q0 136 39 259.5t111 221.5t169.5 170.5t219 111.5t254.5 39q67 0 134 -11t148.5 -39t158 -88t130.5 -147l-138 -110q-68 111 -186.5 166.5t-256.5 55.5q-122 0 -232 -47.5t-190 -129t-126.5 -195.5t-46.5 -242q0 -225 143.5 -370t358.5 -145q118 0 222.5 48 t182.5 134l119 -116q-103 -116 -240 -178t-295 -62q-193 0 -347.5 85t-243 239.5t-88.5 349.5z" />
<glyph unicode="D" horiz-adv-x="1588" d="M91 0l305 1434h474q308 0 485.5 -163.5t177.5 -439.5q0 -173 -60.5 -323.5t-173 -263.5t-284.5 -178.5t-382 -65.5h-542zM311 171h342q162 0 293 50t217 137t132 204t46 253q0 207 -125 327.5t-366 120.5h-306z" />
<glyph unicode="E" horiz-adv-x="1341" d="M91 0l305 1434h987l-35 -169h-803l-98 -458h783l-36 -170h-783l-100 -468h817l-36 -169h-1001z" />
<glyph unicode="F" horiz-adv-x="1290" d="M91 0l305 1434h979l-37 -171h-794l-97 -456h775l-37 -170h-774l-136 -637h-184z" />
<glyph unicode="G" horiz-adv-x="1650" d="M160 639q0 172 62.5 323.5t169.5 259t254.5 170t312.5 62.5q58 0 119 -10t135 -33.5t146 -74t127 -121.5l-136 -122q-73 95 -178.5 141t-227.5 46q-163 0 -299 -79t-216 -222.5t-80 -322.5q0 -227 141 -365t364 -138q208 0 343.5 115.5t178.5 326.5h-431l36 167h607 q0 -25 -5 -65q-40 -321 -241.5 -519t-503.5 -198q-192 0 -346.5 83.5t-243 234.5t-88.5 341z" />
<glyph unicode="H" horiz-adv-x="1587" d="M91 0l305 1434h185l-134 -627h830l134 627h184l-306 -1434h-184l136 637h-830l-136 -637h-184z" />
<glyph unicode="I" horiz-adv-x="572" d="M91 0l305 1434h185l-306 -1434h-184z" />
<glyph unicode="J" horiz-adv-x="1124" d="M-13 193l132 117q46 -68 125 -112.5t173 -44.5q137 0 222 89.5t124 278.5l190 913h184l-198 -955q-104 -499 -529 -499q-131 0 -245 58t-178 155z" />
<glyph unicode="K" horiz-adv-x="1390" d="M91 0l305 1434h185l-135 -628h142l668 628h243l-774 -711l561 -723h-218l-493 636h-164l-136 -636h-184z" />
<glyph unicode="L" horiz-adv-x="1215" d="M91 0l305 1434h185l-270 -1263h799l-37 -171h-982z" />
<glyph unicode="M" horiz-adv-x="1871" d="M91 0l305 1435h266l246 -1075l688 1075h284l-305 -1435h-183l259 1218l-676 -1063h-191l-249 1068l-261 -1223h-183z" />
<glyph unicode="N" horiz-adv-x="1588" d="M91 0l305 1435h169l603 -1152l244 1151h184l-306 -1435h-168l-603 1153l-245 -1152h-183z" />
<glyph unicode="O" horiz-adv-x="1703" d="M160 642q0 164 59.5 312.5t163 259t253.5 175.5t321 65q194 0 349 -81t245 -233t90 -348q0 -164 -59.5 -313.5t-163.5 -259.5t-253.5 -175.5t-319.5 -65.5q-144 0 -270 47.5t-217.5 133t-144.5 210.5t-53 273zM349 655q0 -227 143 -365t367 -138q170 0 307.5 87t212 230 t74.5 309q0 227 -143 365t-367 138q-128 0 -240 -51t-189 -137t-121 -200t-44 -238z" />
<glyph unicode="P" horiz-adv-x="1314" d="M91 0l305 1434h478q218 0 338 -101t120 -273q0 -219 -153.5 -353t-434.5 -134h-347l-122 -573h-184zM433 743h320q196 0 293.5 80.5t97.5 219.5q0 108 -73 164.5t-214 56.5h-313z" />
<glyph unicode="Q" horiz-adv-x="1722" d="M160 642q0 164 59.5 312.5t163 259t253.5 175.5t321 65q194 0 349 -81t245 -233t90 -348q0 -301 -181 -524l185 -268h-203l-104 146q-209 -168 -493 -168q-144 0 -270 47.5t-217.5 133t-144.5 210.5t-53 273zM349 655q0 -227 143 -365t367 -138q216 0 379 140l-273 393 h206l181 -260q101 156 101 353q0 227 -143 365t-367 138q-128 0 -240 -51t-189 -137t-121 -200t-44 -238z" />
<glyph unicode="R" horiz-adv-x="1361" d="M91 0l305 1434h515q215 0 334 -99.5t119 -257.5q0 -67 -17.5 -130t-59.5 -123.5t-103.5 -105.5t-157 -72.5t-212.5 -27.5h-55l448 -618h-215l-433 618h-152l-132 -618h-184zM441 782h378q97 0 168.5 22.5t111 62.5t58 87t18.5 103q0 96 -72.5 151t-208.5 55h-350z" />
<glyph unicode="S" horiz-adv-x="1357" d="M74 173l107 146q90 -87 226.5 -128t245.5 -41q175 0 280.5 71.5t105.5 184.5q0 86 -70 137t-217 77l-121 21q-181 32 -283 123t-102 238q0 87 34 166t99.5 144t174 103.5t245.5 38.5q308 0 543 -166l-101 -146q-197 141 -453 141q-91 0 -161 -22.5t-110 -60.5t-60 -82.5 t-20 -92.5q0 -87 63.5 -137t195.5 -75l118 -20q415 -74 415 -367q0 -197 -158.5 -322.5t-426.5 -125.5q-81 0 -172 15.5t-204 62t-194 117.5z" />
<glyph unicode="T" horiz-adv-x="1214" d="M204 1263l37 171h1136l-37 -171h-471l-268 -1263h-184l268 1263h-481z" />
<glyph unicode="U" horiz-adv-x="1507" d="M176 421q0 68 18 154l183 859h184l-183 -854q-14 -61 -14 -129q0 -152 90.5 -225t246.5 -73q177 0 299 101t167 313l184 867h184l-187 -880q-63 -296 -235.5 -435t-431.5 -139q-107 0 -197.5 27t-160 80t-108.5 138.5t-39 195.5z" />
<glyph unicode="V" horiz-adv-x="1434" d="M245 1434h183l222 -1258l750 1258h193l-862 -1435h-223z" />
<glyph unicode="W" horiz-adv-x="2237" d="M270 1434h184l123 -1238l645 1239h196l128 -1229l634 1228h191l-753 -1435h-218l-125 1191l-624 -1191h-226z" />
<glyph unicode="X" horiz-adv-x="1379" d="M-44 0l674 731l-351 703h200l278 -564l515 564h226l-658 -712l366 -722h-201l-290 583l-533 -583h-226z" />
<glyph unicode="Y" horiz-adv-x="1314" d="M214 1434h196l299 -664l566 664h228l-732 -839l-126 -595h-184l129 610z" />
<glyph unicode="Z" horiz-adv-x="1335" d="M46 0l33 152l1044 1111h-841l36 171h1084l-31 -145l-1047 -1118h847l-36 -171h-1089z" />
<glyph unicode="[" horiz-adv-x="761" d="M34 -269l362 1703h490l-33 -156h-318l-296 -1392h317l-33 -155h-489z" />
<glyph unicode="\" horiz-adv-x="1777" d="M328 1577h191l1089 -1782h-192z" />
<glyph unicode="]" horiz-adv-x="761" d="M-83 -269l33 155h317l296 1392h-316l33 156h489l-362 -1703h-490z" />
<glyph unicode="_" horiz-adv-x="960" d="M-169 -286l32 152h971l-32 -152h-971z" />
<glyph unicode="a" horiz-adv-x="1240" d="M83 415q0 152 72.5 285t201 213t282.5 80q121 0 206.5 -48t129.5 -132l35 160h167l-207 -973h-166l22 109q-131 -131 -323 -131q-181 0 -300.5 124.5t-119.5 312.5zM256 432q0 -129 77 -212t209 -83q142 0 247 98t126 247q4 32 4 62q1 111 -61 191q-78 101 -224 101 q-158 0 -268 -119t-110 -285z" />
<glyph unicode="b" horiz-adv-x="1241" d="M63 0l314 1475h168l-126 -593q125 112 304 112q188 0 311.5 -124t123.5 -312q0 -152 -72 -284.5t-201 -213t-283 -80.5q-121 0 -206.5 48t-129.5 132l-35 -160h-168zM326 490q-4 -32 -4 -61q0 -111 62 -191q79 -101 223 -101q159 0 269 119t110 285q0 128 -77.5 211.5 t-208.5 83.5q-144 0 -248.5 -98t-125.5 -248z" />
<glyph unicode="c" horiz-adv-x="1035" d="M87 437q0 150 70.5 277t197 202.5t280.5 75.5q262 0 387 -187l-131 -94q-101 124 -264 124q-155 0 -261.5 -113t-106.5 -272q0 -136 84.5 -224t210.5 -88q154 0 261 107l96 -111q-70 -74 -164.5 -113t-199.5 -39q-136 0 -241.5 60t-162 163t-56.5 232z" />
<glyph unicode="d" horiz-adv-x="1242" d="M83 415q0 152 72.5 285t201 213t282.5 80q120 0 206 -48t130 -132l141 662h169l-313 -1475h-168l22 109q-131 -131 -323 -131q-181 0 -300.5 124.5t-119.5 312.5zM255 432q0 -129 77.5 -212t209.5 -83q142 0 247 98t126 247q4 32 4 61q0 111 -62 191q-79 102 -223 102 q-159 0 -269 -119t-110 -285z" />
<glyph unicode="e" horiz-adv-x="1104" d="M80 401q0 81 21.5 163.5t67 159.5t109.5 137t155.5 96t197.5 36q182 0 292 -105t110 -282q0 -102 -32 -179h-751v-18q0 -130 78 -207t216 -77q161 0 289 103l83 -115q-87 -70 -180 -102.5t-211 -32.5q-208 0 -326.5 118.5t-118.5 304.5zM273 562h592q2 26 2 39 q0 114 -67 179t-177 65q-71 0 -131 -23.5t-102 -65t-71 -89.5t-46 -105z" />
<glyph unicode="f" horiz-adv-x="844" d="M122 820l32 153h212l41 190q34 161 124.5 246.5t233.5 85.5q146 0 247 -81l-82 -130q-73 54 -166 54q-70 0 -121 -49t-72 -148l-35 -168h352l-33 -153h-352l-174 -820h-169l174 820h-212z" />
<glyph unicode="g" horiz-adv-x="1239" d="M16 -272l96 128q142 -123 344 -123q136 0 232 89t127 239l9 49q-123 -112 -295 -112q-197 0 -320.5 121.5t-123.5 304.5q0 155 72.5 286t199 207t277.5 76q124 0 210 -48t129 -133l36 161h167l-194 -908q-49 -233 -189 -358.5t-340 -125.5q-258 0 -437 147zM259 440 q0 -125 78 -205t203 -80q156 0 260 103t114 266q1 12 1 24q0 118 -73 199q-80 89 -209 89q-161 0 -267.5 -112.5t-106.5 -283.5z" />
<glyph unicode="h" horiz-adv-x="1208" d="M63 0l315 1475h167l-129 -611q122 129 309 129q162 0 257 -92.5t95 -242.5q0 -50 -12 -107l-119 -551h-168l117 549q10 41 10 83q0 93 -54.5 148t-164.5 55q-126 0 -218 -78.5t-122 -217.5l-114 -539h-169z" />
<glyph unicode="i" horiz-adv-x="502" d="M63 0l207 973h169l-207 -973h-169zM309 1315q0 51 34 85.5t84 34.5q51 0 85.5 -34.5t34.5 -85.5q0 -50 -34.5 -83.5t-85.5 -33.5q-50 0 -84 33.5t-34 83.5z" />
<glyph unicode="j" horiz-adv-x="512" d="M-247 -385l62 138q39 -21 87 -21q53 0 90 34t51 99l236 1108h168l-239 -1131q-28 -132 -106.5 -200t-189.5 -68q-94 0 -159 41zM316 1315q0 51 34 85.5t84 34.5q51 0 85.5 -34.5t34.5 -85.5q0 -50 -34.5 -83.5t-85.5 -33.5q-50 0 -84 33.5t-34 83.5z" />
<glyph unicode="k" horiz-adv-x="1058" d="M63 0l314 1475h169l-190 -891h124l410 389h219l-510 -474l334 -499h-189l-284 432h-136l-92 -432h-169z" />
<glyph unicode="l" horiz-adv-x="502" d="M63 0l314 1475h169l-314 -1475h-169z" />
<glyph unicode="m" horiz-adv-x="1924" d="M63 0l207 973h167l-23 -111q124 131 311 131q120 0 203.5 -50.5t121.5 -139.5q75 100 177.5 145t214.5 45q161 0 256 -92.5t95 -242.5q0 -50 -12 -107l-119 -551h-168l117 549q10 41 10 83q0 93 -55 148t-166 55q-125 0 -216 -78.5t-121 -217.5l-117 -539h-168l117 549 q10 40 10 77q1 16 -1 32q-6 52 -28.5 91t-71.5 62.5t-119 23.5q-126 0 -218 -78.5t-122 -217.5l-114 -539h-168z" />
<glyph unicode="n" horiz-adv-x="1208" d="M63 0l207 973h167l-23 -111q124 131 311 131q162 0 257 -92.5t95 -242.5q0 -50 -12 -107l-119 -551h-168l117 549q10 40 10 83q0 92 -55 147.5t-165 55.5q-126 0 -218 -78.5t-122 -217.5l-114 -539h-168z" />
<glyph unicode="o" horiz-adv-x="1202" d="M87 438q0 150 72 277t200.5 202.5t283.5 75.5q209 0 340 -129t131 -329q0 -150 -72.5 -278t-200.5 -203.5t-283 -75.5q-208 0 -339.5 130t-131.5 330zM259 447q0 -137 87 -224t223 -87q158 0 266 114t108 274q0 137 -87.5 224.5t-225.5 87.5q-157 0 -264 -114.5 t-107 -274.5z" />
<glyph unicode="p" horiz-adv-x="1241" d="M-24 -410l294 1383h167l-24 -111q134 132 325 132q181 0 300.5 -124t119.5 -312q0 -152 -72 -284.5t-201 -213t-283 -80.5q-122 0 -207 47.5t-129 131.5l-121 -569h-169zM326 490q-4 -32 -4 -62q0 -110 62 -190q78 -101 222 -101q159 0 269 119t110 285q0 129 -77 212 t-209 83q-144 0 -248 -98t-125 -248z" />
<glyph unicode="q" horiz-adv-x="1240" d="M83 415q0 152 72.5 285t201 213t282.5 80q121 0 206.5 -48t129.5 -132l35 160h167l-294 -1383h-169l106 498q-126 -110 -302 -110q-187 0 -311 124.5t-124 312.5zM256 432q0 -129 77 -212t209 -83q142 0 247 98t126 247q4 32 4 62q0 111 -61 191q-79 101 -224 101 q-158 0 -268 -119t-110 -285z" />
<glyph unicode="r" horiz-adv-x="831" d="M63 0l207 973h167l-22 -105q118 125 293 125q98 0 173 -39l-65 -158q-56 38 -146 38q-117 0 -204.5 -76t-118.5 -220l-116 -538h-168z" />
<glyph unicode="s" horiz-adv-x="977" d="M8 114l93 124q143 -112 333 -112q110 0 176.5 37t74.5 106q1 7 1 14q0 47 -36 77q-42 35 -132 48l-86 13q-158 24 -230 99q-61 64 -61 156q0 15 2 31q16 136 124.5 210.5t279.5 74.5q251 0 403 -107l-88 -128q-57 38 -146 64t-171 26q-98 0 -159.5 -35t-68.5 -97l-2 -20 q0 -50 36 -78q42 -34 130 -47l82 -12q159 -24 233 -99q63 -64 64 -156q0 -15 -2 -31q-17 -132 -130 -212t-292 -80q-113 0 -229.5 35.5t-198.5 98.5z" />
<glyph unicode="t" horiz-adv-x="912" d="M121 820l33 153h202l66 305h169l-66 -305h395l-33 -153h-393l-98 -458q-9 -40 -9 -74q-1 -59 27 -95q42 -57 128 -57q98 0 198 67l70 -129q-129 -94 -288 -94q-171 0 -253 102q-55 68 -55 173q0 51 13 112l97 453h-203z" />
<glyph unicode="u" horiz-adv-x="1196" d="M133 321q0 51 12 110l116 542h169l-117 -549q-9 -46 -9 -85q0 -101 61.5 -152t164.5 -51q120 0 209.5 74.5t118.5 219.5l115 543h169l-121 -573q-45 -212 -182 -316t-328 -104q-167 0 -272.5 90t-105.5 251z" />
<glyph unicode="v" horiz-adv-x="1055" d="M129 973h171l161 -810l490 810h183l-603 -974h-196z" />
<glyph unicode="w" horiz-adv-x="1707" d="M142 973h168l114 -791l417 791h186l124 -795l438 795h184l-551 -973h-199l-117 787l-417 -787h-195z" />
<glyph unicode="x" horiz-adv-x="1031" d="M-48 0l466 498l-281 475h187l208 -366l338 366h202l-460 -489l282 -484h-184l-214 370l-343 -370h-201z" />
<glyph unicode="y" horiz-adv-x="1073" d="M-15 -415l462 640l-326 748h178l256 -598l420 598h189l-988 -1388h-191z" />
<glyph unicode="z" horiz-adv-x="1040" d="M28 0l26 131l710 689h-577l33 153h797l-28 -128l-702 -693h581l-31 -152h-809z" />
<glyph unicode="{" horiz-adv-x="871" d="M121 505l33 155q128 0 195.5 59.5t86.5 190.5l22 143q30 196 146.5 288.5t317.5 92.5h53l-33 -156h-38q-120 0 -186.5 -54.5t-86.5 -184.5l-20 -126q-22 -143 -88 -224t-178 -115q91 -42 123.5 -126t2.5 -196l-35 -129q-30 -116 17.5 -176t154.5 -60h59l-34 -155h-58 q-96 0 -166.5 33.5t-106 92t-45.5 137.5t16 169l29 107q30 113 -19 173.5t-162 60.5z" />
<glyph unicode="|" horiz-adv-x="709" d="M112 -271l362 1705h167l-362 -1705h-167z" />
<glyph unicode="}" horiz-adv-x="871" d="M-62 -268l32 155h38q120 0 187 54.5t87 184.5l19 126q22 143 88 223.5t177 114.5q-90 42 -122.5 127t-2.5 196l35 129q30 116 -17.5 176t-154.5 60h-58l34 156h57q96 0 166.5 -34t106 -92.5t45.5 -137.5t-16 -169l-29 -107q-30 -113 19.5 -173.5t162.5 -60.5l-33 -155 q-128 0 -196 -59.5t-87 -190.5l-21 -142q-30 -196 -146.5 -288.5t-317.5 -92.5h-53z" />
<glyph unicode="&#xa1;" horiz-adv-x="519" d="M-44 -461l234 974h145l-173 -974h-206zM190 852q0 56 42 98.5t98 42.5t98 -42.5t42 -98.5q0 -57 -41.5 -98.5t-98.5 -41.5t-98.5 41.5t-41.5 98.5z" />
<glyph unicode="&#xa3;" horiz-adv-x="1433" d="M110 0l35 165h174l101 476h-174l33 152h173l40 186q50 236 189 355.5t329 119.5q257 0 368 -174l-137 -103q-87 111 -243 111q-269 0 -341 -351l-30 -144h519l-33 -152h-518l-100 -476h694l-35 -165h-1044z" />
<glyph unicode="&#xa5;" horiz-adv-x="1433" d="M203 315l29 139h392l41 191h-393l31 139h320l-311 650h194l273 -593l523 593h214l-580 -650h325l-32 -139h-390l-41 -191h392l-31 -139h-391l-68 -315h-173l67 315h-391z" />
<glyph unicode="&#xa7;" horiz-adv-x="1270" d="M19 -134l111 127q60 -57 163.5 -96.5t221.5 -39.5q139 0 237 51t114 134q20 94 -48 140.5t-215 67.5l-107 14q-166 22 -254.5 109t-60.5 221q33 160 200 251q-111 94 -76 266q31 153 176.5 248t345.5 95q141 0 259 -38.5t199 -103.5l-101 -130q-157 115 -366 115 q-133 0 -230 -52.5t-111 -129.5q-20 -97 42.5 -145.5t197.5 -63.5l96 -11q184 -23 278 -116t64 -235q-34 -158 -198 -243q115 -100 81 -261q-30 -154 -180.5 -247t-352.5 -93q-140 0 -275.5 45.5t-210.5 120.5zM350 605q-19 -87 46 -132.5t205 -60.5l97 -12q64 -7 129 -28 q145 60 164 156q20 94 -52 146t-218 70l-107 13q-49 6 -95 18q-68 -26 -113 -70.5t-56 -99.5z" />
<glyph unicode="&#xa9;" horiz-adv-x="1940" d="M185 669q0 169 69.5 328.5t187 280t284.5 193.5t352 73q156 0 299 -58t248 -158t167.5 -243t62.5 -304q0 -112 -31.5 -222.5t-87.5 -207t-138 -178.5t-179 -141t-214.5 -92.5t-241.5 -33.5q-156 0 -299 58t-248.5 158t-168 243t-62.5 304zM339 677q0 -132 51 -249 t137 -199t202.5 -129t244.5 -47q151 0 287.5 60.5t232.5 160t152 230.5t56 268q0 178 -87 322t-232 223.5t-316 79.5q-151 0 -287.5 -60.5t-232.5 -160.5t-152 -231t-56 -268zM598 687q0 129 59.5 238t168.5 174t243 65q121 0 218.5 -54t147.5 -147l-136 -78 q-36 65 -99.5 98.5t-138.5 33.5q-130 0 -216.5 -94t-86.5 -227q0 -120 74.5 -192t185.5 -72q71 0 133.5 31.5t106.5 88.5l102 -94q-135 -172 -350 -172q-172 0 -292 110t-120 291z" />
<glyph unicode="&#xab;" horiz-adv-x="1055" d="M124 543l276 381h189l-290 -399l111 -363h-171zM537 543l276 381h188l-289 -399l110 -363h-171z" />
<glyph unicode="&#xad;" horiz-adv-x="835" d="M131 467l32 151h564l-32 -151h-564z" />
<glyph unicode="&#xae;" horiz-adv-x="1030" d="M197 1015q0 89 36.5 172.5t98 146t148.5 100t183 37.5q168 0 287 -113.5t119 -286.5q0 -118 -61 -223.5t-168.5 -169.5t-233.5 -64q-110 0 -203.5 51t-149.5 143.5t-56 206.5zM308 1020q0 -132 89 -218t214 -86q144 0 245 106t101 244q0 131 -88 217.5t-212 86.5 q-96 0 -177 -49.5t-126.5 -130t-45.5 -170.5zM438 851l83 393h171q73 0 111.5 -41.5t26.5 -96.5q-23 -99 -151 -110l111 -145h-104l-100 144h-27l-30 -144h-91zM574 1068h88q66 0 76 45q6 24 -9 38t-47 14h-87z" />
<glyph unicode="&#xb0;" horiz-adv-x="816" d="M175 1069q0 158 110.5 270.5t276.5 112.5q142 0 239.5 -96.5t97.5 -235.5q0 -156 -113 -269.5t-275 -113.5q-142 0 -239 97t-97 235zM319 1079q0 -87 58 -146.5t143 -59.5q92 0 163 71t71 166q0 86 -58.5 146.5t-141.5 60.5q-93 0 -164 -71t-71 -167z" />
<glyph unicode="&#xb7;" horiz-adv-x="683" d="M219 544q0 56 42 97.5t98 41.5t98.5 -41.5t42.5 -97.5q0 -58 -42 -100t-99 -42q-56 0 -98 42.5t-42 99.5z" />
<glyph unicode="&#xbb;" horiz-adv-x="1056" d="M79 162l290 398l-111 364h171l115 -381l-277 -381h-188zM492 162l289 398l-110 364h171l114 -381l-276 -381h-188z" />
<glyph unicode="&#xbf;" horiz-adv-x="868" d="M-41 -96q0 190 131.5 308t380.5 134l44 167h153l-69 -324h-92q-176 0 -267.5 -71t-91.5 -192q0 -111 100.5 -172t262.5 -61q9 0 75 3l-8 -172q-37 -4 -99 -4q-231 0 -375.5 104.5t-144.5 279.5zM512 852q0 58 42 99.5t98 41.5t98.5 -42t42.5 -99q0 -56 -42.5 -97.5 t-98.5 -41.5t-98 41.5t-42 97.5z" />
<glyph unicode="&#xc0;" horiz-adv-x="1462" d="M-60 0l878 1435h224l274 -1435h-187l-72 391h-684l-238 -391h-195zM476 562h550l-128 694zM653 1855h213l209 -307h-165z" />
<glyph unicode="&#xc1;" horiz-adv-x="1462" d="M-60 0l878 1435h224l274 -1435h-187l-72 391h-684l-238 -391h-195zM476 562h550l-128 694zM786 1547l241 307h218l-288 -307h-171z" />
<glyph unicode="&#xc2;" horiz-adv-x="1462" d="M-60 0l878 1435h224l274 -1435h-187l-72 391h-684l-238 -391h-195zM476 562h550l-128 694zM582 1545l288 299h226l174 -299h-175l-124 196l-202 -196h-187z" />
<glyph unicode="&#xc3;" horiz-adv-x="1462" d="M-60 0l878 1435h224l274 -1435h-187l-72 391h-684l-238 -391h-195zM476 562h550l-128 694zM594 1700q56 57 111.5 83t125.5 26q78 0 156 -39l53 -26q24 -12 54 -12q66 0 140 65l95 -99q-55 -58 -110.5 -84.5t-126.5 -26.5q-47 0 -88.5 12.5t-66 27t-53.5 27t-55 12.5 q-63 0 -140 -67z" />
<glyph unicode="&#xc4;" horiz-adv-x="1462" d="M-60 0l878 1435h224l274 -1435h-187l-72 391h-684l-238 -391h-195zM476 562h550l-128 694zM651 1695q0 50 34 84.5t84 34.5t84.5 -34.5t34.5 -84.5q0 -51 -34 -84.5t-85 -33.5q-50 0 -84 33.5t-34 84.5zM1066 1695q0 51 33.5 85t84.5 34q50 0 84.5 -34.5t34.5 -84.5 q0 -51 -34 -84.5t-85 -33.5q-52 0 -85 33t-33 85z" />
<glyph unicode="&#xc5;" horiz-adv-x="1462" d="M-60 0l878 1435h224l274 -1435h-187l-72 391h-684l-238 -391h-195zM476 562h550l-128 694zM724 1760q0 97 70 166t168 69t168 -69t70 -166t-70 -165.5t-168 -68.5t-168 68.5t-70 165.5zM836 1760q0 -54 37 -91t89 -37q53 0 90 37t37 91t-37 91t-90 37q-52 0 -89 -37 t-37 -91z" />
<glyph unicode="&#xc6;" horiz-adv-x="2326" d="M-69 0l1369 1434h1069l-36 -169h-803l-97 -458h782l-36 -170h-783l-100 -468h818l-37 -169h-1001l77 362h-646l-345 -362h-231zM670 534h520l149 703z" />
<glyph unicode="&#xc7;" horiz-adv-x="1510" d="M162 652q0 136 39 259.5t111 221.5t169.5 170.5t219 111.5t254.5 39q67 0 134 -11t148.5 -39t158 -88t130.5 -147l-138 -110q-68 111 -186.5 166.5t-256.5 55.5q-122 0 -232 -47.5t-190 -129t-126.5 -195.5t-46.5 -242q0 -225 143.5 -370t358.5 -145q118 0 222.5 48 t182.5 134l119 -116q-103 -116 -240 -178t-295 -62q-193 0 -347.5 85t-243 239.5t-88.5 349.5zM548 -330l184 336h180l-169 -336h-195z" />
<glyph unicode="&#xc8;" horiz-adv-x="1341" d="M91 0l305 1434h987l-35 -169h-803l-98 -458h783l-36 -170h-783l-100 -468h817l-36 -169h-1001zM610 1855h213l209 -307h-165z" />
<glyph unicode="&#xc9;" horiz-adv-x="1341" d="M91 0l305 1434h987l-35 -169h-803l-98 -458h783l-36 -170h-783l-100 -468h817l-36 -169h-1001zM743 1547l241 307h218l-288 -307h-171z" />
<glyph unicode="&#xca;" horiz-adv-x="1341" d="M91 0l305 1434h987l-35 -169h-803l-98 -458h783l-36 -170h-783l-100 -468h817l-36 -169h-1001zM539 1545l288 299h226l174 -299h-175l-124 196l-202 -196h-187z" />
<glyph unicode="&#xcb;" horiz-adv-x="1341" d="M91 0l305 1434h987l-35 -169h-803l-98 -458h783l-36 -170h-783l-100 -468h817l-36 -169h-1001zM608 1695q0 50 34 84.5t84 34.5t84.5 -34.5t34.5 -84.5q0 -51 -34 -84.5t-85 -33.5q-50 0 -84 33.5t-34 84.5zM1023 1695q0 51 33.5 85t84.5 34q50 0 84.5 -34.5t34.5 -84.5 q0 -51 -34 -84.5t-85 -33.5q-52 0 -85 33t-33 85z" />
<glyph unicode="&#xcc;" horiz-adv-x="572" d="M91 0l305 1434h185l-306 -1434h-184zM211 1855h213l209 -307h-165z" />
<glyph unicode="&#xcd;" horiz-adv-x="572" d="M91 0l305 1434h185l-306 -1434h-184zM344 1547l241 307h218l-288 -307h-171z" />
<glyph unicode="&#xce;" horiz-adv-x="572" d="M91 0l305 1434h185l-306 -1434h-184zM139 1545l289 299h225l174 -299h-175l-124 196l-201 -196h-188z" />
<glyph unicode="&#xcf;" horiz-adv-x="572" d="M91 0l305 1434h185l-306 -1434h-184zM209 1695q0 50 34 84.5t84 34.5t84 -34.5t34 -84.5q0 -51 -33.5 -84.5t-84.5 -33.5q-50 0 -84 33.5t-34 84.5zM624 1695q0 51 33 85t84 34q50 0 84.5 -34.5t34.5 -84.5q0 -51 -34 -84.5t-85 -33.5q-52 0 -84.5 33t-32.5 85z" />
<glyph unicode="&#xd0;" horiz-adv-x="1738" d="M148 637l37 170h229l133 627h474q308 0 485 -163t177 -440q0 -173 -60.5 -323.5t-173 -263.5t-284.5 -178.5t-382 -65.5h-541l135 637h-229zM462 171h342q162 0 293 50t217 137t132 204t46 253q0 207 -125 327.5t-367 120.5h-306l-96 -456h386l-37 -170h-386z" />
<glyph unicode="&#xd1;" horiz-adv-x="1588" d="M91 0l305 1435h169l603 -1152l244 1151h184l-306 -1435h-168l-603 1153l-245 -1152h-183zM646 1700q55 57 111.5 83t126.5 26q77 0 155 -39l54 -26q24 -12 53 -12q66 0 140 65l95 -99q-55 -58 -110.5 -84.5t-126.5 -26.5q-47 0 -88.5 12.5t-65.5 27t-53 27t-55 12.5 q-64 0 -141 -67z" />
<glyph unicode="&#xd2;" horiz-adv-x="1703" d="M160 642q0 164 59.5 312.5t163 259t253.5 175.5t321 65q194 0 349 -81t245 -233t90 -348q0 -164 -59.5 -313.5t-163.5 -259.5t-253.5 -175.5t-319.5 -65.5q-144 0 -270 47.5t-217.5 133t-144.5 210.5t-53 273zM349 655q0 -227 143 -365t367 -138q170 0 307.5 87t212 230 t74.5 309q0 227 -143 365t-367 138q-128 0 -240 -51t-189 -137t-121 -200t-44 -238zM702 1855h213l209 -307h-165z" />
<glyph unicode="&#xd3;" horiz-adv-x="1703" d="M160 642q0 164 59.5 312.5t163 259t253.5 175.5t321 65q194 0 349 -81t245 -233t90 -348q0 -164 -59.5 -313.5t-163.5 -259.5t-253.5 -175.5t-319.5 -65.5q-144 0 -270 47.5t-217.5 133t-144.5 210.5t-53 273zM349 655q0 -227 143 -365t367 -138q170 0 307.5 87t212 230 t74.5 309q0 227 -143 365t-367 138q-128 0 -240 -51t-189 -137t-121 -200t-44 -238zM836 1547l240 307h218l-287 -307h-171z" />
<glyph unicode="&#xd4;" horiz-adv-x="1703" d="M160 642q0 164 59.5 312.5t163 259t253.5 175.5t321 65q194 0 349 -81t245 -233t90 -348q0 -164 -59.5 -313.5t-163.5 -259.5t-253.5 -175.5t-319.5 -65.5q-144 0 -270 47.5t-217.5 133t-144.5 210.5t-53 273zM349 655q0 -227 143 -365t367 -138q170 0 307.5 87t212 230 t74.5 309q0 227 -143 365t-367 138q-128 0 -240 -51t-189 -137t-121 -200t-44 -238zM631 1545l289 299h225l174 -299h-175l-124 196l-202 -196h-187z" />
<glyph unicode="&#xd5;" horiz-adv-x="1703" d="M160 642q0 164 59.5 312.5t163 259t253.5 175.5t321 65q194 0 349 -81t245 -233t90 -348q0 -164 -59.5 -313.5t-163.5 -259.5t-253.5 -175.5t-319.5 -65.5q-144 0 -270 47.5t-217.5 133t-144.5 210.5t-53 273zM349 655q0 -227 143 -365t367 -138q170 0 307.5 87t212 230 t74.5 309q0 227 -143 365t-367 138q-128 0 -240 -51t-189 -137t-121 -200t-44 -238zM643 1700q55 57 111.5 83t126.5 26q77 0 155 -39l54 -26q24 -12 53 -12q66 0 140 65l95 -99q-55 -58 -110.5 -84.5t-126.5 -26.5q-47 0 -88.5 12.5t-65.5 27t-53 27t-55 12.5 q-64 0 -141 -67z" />
<glyph unicode="&#xd6;" horiz-adv-x="1703" d="M160 642q0 164 59.5 312.5t163 259t253.5 175.5t321 65q194 0 349 -81t245 -233t90 -348q0 -164 -59.5 -313.5t-163.5 -259.5t-253.5 -175.5t-319.5 -65.5q-144 0 -270 47.5t-217.5 133t-144.5 210.5t-53 273zM349 655q0 -227 143 -365t367 -138q170 0 307.5 87t212 230 t74.5 309q0 227 -143 365t-367 138q-128 0 -240 -51t-189 -137t-121 -200t-44 -238zM700 1695q0 50 34 84.5t84 34.5t84.5 -34.5t34.5 -84.5q0 -51 -34 -84.5t-85 -33.5q-50 0 -84 33.5t-34 84.5zM1115 1695q0 51 33.5 85t84.5 34q50 0 84.5 -34.5t34.5 -84.5 q0 -51 -34 -84.5t-85 -33.5q-52 0 -85 33t-33 85z" />
<glyph unicode="&#xd7;" d="M143 244l363 299l-236 299l119 98l228 -290l376 311l93 -118l-364 -300l236 -300l-118 -99l-231 291l-372 -309z" />
<glyph unicode="&#xd8;" horiz-adv-x="1703" d="M99 98l175 156q-114 163 -114 388q0 164 59.5 312.5t163 259t253.5 175.5t321 65q286 0 476 -170l192 172l108 -121l-196 -174q104 -158 104 -369q0 -164 -59.5 -313.5t-163.5 -259.5t-253.5 -175.5t-319.5 -65.5q-271 0 -461 157l-177 -158zM349 655q0 -152 70 -272 l872 776q-141 122 -348 122q-128 0 -240 -51t-189 -137t-121 -200t-44 -238zM525 260q134 -108 334 -108q170 0 307.5 87t212 230t74.5 309q0 144 -60 254z" />
<glyph unicode="&#xd9;" horiz-adv-x="1507" d="M176 421q0 68 18 154l183 859h184l-183 -854q-14 -61 -14 -129q0 -152 90.5 -225t246.5 -73q177 0 299 101t167 313l184 867h184l-187 -880q-63 -296 -235.5 -435t-431.5 -139q-107 0 -197.5 27t-160 80t-108.5 138.5t-39 195.5zM678 1855h213l209 -307h-165z" />
<glyph unicode="&#xda;" horiz-adv-x="1507" d="M176 421q0 68 18 154l183 859h184l-183 -854q-14 -61 -14 -129q0 -152 90.5 -225t246.5 -73q177 0 299 101t167 313l184 867h184l-187 -880q-63 -296 -235.5 -435t-431.5 -139q-107 0 -197.5 27t-160 80t-108.5 138.5t-39 195.5zM811 1547l241 307h218l-288 -307h-171z " />
<glyph unicode="&#xdb;" horiz-adv-x="1507" d="M176 421q0 68 18 154l183 859h184l-183 -854q-14 -61 -14 -129q0 -152 90.5 -225t246.5 -73q177 0 299 101t167 313l184 867h184l-187 -880q-63 -296 -235.5 -435t-431.5 -139q-107 0 -197.5 27t-160 80t-108.5 138.5t-39 195.5zM606 1545l289 299h225l174 -299h-175 l-124 196l-201 -196h-188z" />
<glyph unicode="&#xdc;" horiz-adv-x="1507" d="M176 421q0 68 18 154l183 859h184l-183 -854q-14 -61 -14 -129q0 -152 90.5 -225t246.5 -73q177 0 299 101t167 313l184 867h184l-187 -880q-63 -296 -235.5 -435t-431.5 -139q-107 0 -197.5 27t-160 80t-108.5 138.5t-39 195.5zM676 1695q0 50 34 84.5t84 34.5t84 -34.5 t34 -84.5q0 -51 -33.5 -84.5t-84.5 -33.5q-50 0 -84 33.5t-34 84.5zM1091 1695q0 51 33 85t84 34q50 0 84.5 -34.5t34.5 -84.5q0 -51 -34 -84.5t-85 -33.5q-52 0 -84.5 33t-32.5 85z" />
<glyph unicode="&#xdd;" horiz-adv-x="1314" d="M214 1434h196l299 -664l566 664h228l-732 -839l-126 -595h-184l129 610zM697 1547l241 307h218l-288 -307h-171z" />
<glyph unicode="&#xde;" horiz-adv-x="1333" d="M91 0l305 1434h185l-59 -272h314q219 0 338 -101t119 -273q0 -219 -152.5 -352.5t-434.5 -133.5h-366l-65 -302h-184zM376 472h338q196 0 293.5 80.5t97.5 219.5q0 107 -73 163.5t-214 56.5h-332z" />
<glyph unicode="&#xdf;" d="M55 0l219 1034q49 228 185.5 344.5t351.5 116.5q177 0 293.5 -101.5t116.5 -254.5q0 -136 -80 -246.5t-208 -155.5q102 -41 155.5 -145.5t29.5 -222.5q-21 -103 -69 -180t-115.5 -121.5t-145.5 -66t-167 -21.5q-147 0 -243 48l71 141q75 -34 166 -34q133 0 221.5 61 t112.5 185q23 125 -51.5 205.5t-224.5 80.5h-62l34 152h23q161 0 260 69q56 40 88.5 105.5t32.5 128.5q0 95 -73 155.5t-174 60.5q-137 0 -232 -78t-130 -244l-215 -1016h-170z" />
<glyph unicode="&#xe0;" horiz-adv-x="1240" d="M83 415q0 152 72.5 285t201 213t282.5 80q121 0 206.5 -48t129.5 -132l35 160h167l-207 -973h-166l22 109q-131 -131 -323 -131q-181 0 -300.5 124.5t-119.5 312.5zM256 432q0 -129 77 -212t209 -83q142 0 247 98t126 247q21 152 -57.5 253t-223.5 101q-158 0 -268 -119 t-110 -285zM412 1431h213l209 -308h-165z" />
<glyph unicode="&#xe1;" horiz-adv-x="1240" d="M83 415q0 152 72.5 285t201 213t282.5 80q121 0 206.5 -48t129.5 -132l35 160h167l-207 -973h-166l22 109q-131 -131 -323 -131q-181 0 -300.5 124.5t-119.5 312.5zM256 432q0 -129 77 -212t209 -83q142 0 247 98t126 247q21 152 -57.5 253t-223.5 101q-158 0 -268 -119 t-110 -285zM558 1123l241 308h218l-288 -308h-171z" />
<glyph unicode="&#xe2;" horiz-adv-x="1240" d="M83 415q0 152 72.5 285t201 213t282.5 80q121 0 206.5 -48t129.5 -132l35 160h167l-207 -973h-166l22 109q-131 -131 -323 -131q-181 0 -300.5 124.5t-119.5 312.5zM256 432q0 -129 77 -212t209 -83q142 0 247 98t126 247q21 152 -57.5 253t-223.5 101q-158 0 -268 -119 t-110 -285zM348 1120l289 299h225l174 -299h-175l-124 196l-201 -196h-188z" />
<glyph unicode="&#xe3;" horiz-adv-x="1240" d="M83 415q0 152 72.5 285t201 213t282.5 80q121 0 206.5 -48t129.5 -132l35 160h167l-207 -973h-166l22 109q-131 -131 -323 -131q-181 0 -300.5 124.5t-119.5 312.5zM256 432q0 -129 77 -212t209 -83q142 0 247 98t126 247q21 152 -57.5 253t-223.5 101q-158 0 -268 -119 t-110 -285zM343 1275q55 57 111.5 83t126.5 26q79 0 155 -38l54 -27q24 -12 53 -12q66 0 140 65l95 -99q-55 -58 -110.5 -84.5t-126.5 -26.5q-60 0 -108.5 20t-85.5 39.5t-68 19.5q-66 0 -141 -66z" />
<glyph unicode="&#xe4;" horiz-adv-x="1240" d="M83 415q0 152 72.5 285t201 213t282.5 80q121 0 206.5 -48t129.5 -132l35 160h167l-207 -973h-166l22 109q-131 -131 -323 -131q-181 0 -300.5 124.5t-119.5 312.5zM256 432q0 -129 77 -212t209 -83q142 0 247 98t126 247q21 152 -57.5 253t-223.5 101q-158 0 -268 -119 t-110 -285zM404 1270q0 50 34 84.5t84 34.5t84.5 -34.5t34.5 -84.5q0 -51 -34 -84.5t-85 -33.5q-50 0 -84 33.5t-34 84.5zM819 1270q0 51 33.5 85t84.5 34q50 0 84.5 -34.5t34.5 -84.5q0 -51 -34 -84.5t-85 -33.5q-52 0 -85 33t-33 85z" />
<glyph unicode="&#xe5;" horiz-adv-x="1240" d="M83 415q0 152 72.5 285t201 213t282.5 80q121 0 206.5 -48t129.5 -132l35 160h167l-207 -973h-166l22 109q-131 -131 -323 -131q-181 0 -300.5 124.5t-119.5 312.5zM256 432q0 -129 77 -212t209 -83q142 0 247 98t126 247q21 152 -57.5 253t-223.5 101q-158 0 -268 -119 t-110 -285zM468 1335q0 97 70 166t168 69t168 -69t70 -166t-70 -165.5t-168 -68.5t-168 68.5t-70 165.5zM580 1335q0 -54 37 -91t89 -37q53 0 90 37t37 91t-37 91t-90 37q-52 0 -89 -37t-37 -91z" />
<glyph unicode="&#xe6;" horiz-adv-x="1800" d="M67 250q0 139 107.5 227.5t304.5 88.5h319l2 9q7 34 7 67q0 98 -62.5 149t-184.5 51q-134 0 -274 -85l-63 132q167 104 367 104q254 0 339 -180q152 180 398 180q182 0 292 -104.5t110 -282.5q0 -95 -31 -179h-753v-18q0 -130 78.5 -207t216.5 -77q158 0 289 103l83 -115 q-87 -70 -179.5 -102.5t-210.5 -32.5q-134 0 -232 50.5t-154 141.5q-181 -190 -428 -190q-151 0 -246 75t-95 195zM248 266q0 -66 48 -102.5t133 -36.5q94 0 187 44.5t169 129.5q-10 46 -10 100v26h-285q-119 0 -180.5 -46t-61.5 -115zM969 562h592q2 26 2 39 q0 114 -66.5 179t-178.5 65q-94 0 -168 -42.5t-115.5 -103t-65.5 -137.5z" />
<glyph unicode="&#xe7;" horiz-adv-x="1035" d="M87 437q0 150 70.5 277t197 202.5t280.5 75.5q262 0 387 -187l-131 -94q-101 124 -264 124q-155 0 -261.5 -113t-106.5 -272q0 -136 84.5 -224t210.5 -88q154 0 261 107l96 -111q-70 -74 -164.5 -113t-199.5 -39q-136 0 -241.5 60t-162 163t-56.5 232zM260 -330l183 336 h169l-165 -336h-187z" />
<glyph unicode="&#xe8;" horiz-adv-x="1104" d="M80 401q0 81 21.5 163.5t67 159.5t109.5 137t155.5 96t197.5 36q182 0 292 -105t110 -282q0 -102 -32 -179h-751v-18q0 -130 78 -207t216 -77q161 0 289 103l83 -115q-87 -70 -180 -102.5t-211 -32.5q-208 0 -326.5 118.5t-118.5 304.5zM273 562h592q2 26 2 39 q0 114 -67 179t-177 65q-71 0 -131 -23.5t-102 -65t-71 -89.5t-46 -105zM378 1431h213l209 -308h-165z" />
<glyph unicode="&#xe9;" horiz-adv-x="1104" d="M80 401q0 81 21.5 163.5t67 159.5t109.5 137t155.5 96t197.5 36q182 0 292 -105t110 -282q0 -102 -32 -179h-751v-18q0 -130 78 -207t216 -77q161 0 289 103l83 -115q-87 -70 -180 -102.5t-211 -32.5q-208 0 -326.5 118.5t-118.5 304.5zM273 562h592q2 26 2 39 q0 114 -67 179t-177 65q-71 0 -131 -23.5t-102 -65t-71 -89.5t-46 -105zM524 1123l241 308h218l-288 -308h-171z" />
<glyph unicode="&#xea;" horiz-adv-x="1104" d="M80 401q0 81 21.5 163.5t67 159.5t109.5 137t155.5 96t197.5 36q182 0 292 -105t110 -282q0 -102 -32 -179h-751v-18q0 -130 78 -207t216 -77q161 0 289 103l83 -115q-87 -70 -180 -102.5t-211 -32.5q-208 0 -326.5 118.5t-118.5 304.5zM273 562h592q2 26 2 39 q0 114 -67 179t-177 65q-71 0 -131 -23.5t-102 -65t-71 -89.5t-46 -105zM314 1120l289 299h225l174 -299h-175l-124 196l-201 -196h-188z" />
<glyph unicode="&#xeb;" horiz-adv-x="1104" d="M80 401q0 81 21.5 163.5t67 159.5t109.5 137t155.5 96t197.5 36q182 0 292 -105t110 -282q0 -102 -32 -179h-751v-18q0 -130 78 -207t216 -77q161 0 289 103l83 -115q-87 -70 -180 -102.5t-211 -32.5q-208 0 -326.5 118.5t-118.5 304.5zM273 562h592q2 26 2 39 q0 114 -67 179t-177 65q-71 0 -131 -23.5t-102 -65t-71 -89.5t-46 -105zM371 1270q0 50 34 84.5t83 34.5q50 0 84.5 -34.5t34.5 -84.5q0 -51 -34 -84.5t-85 -33.5q-50 0 -83.5 33.5t-33.5 84.5zM785 1270q0 51 33.5 85t84.5 34q50 0 84.5 -34.5t34.5 -84.5q0 -51 -34 -84.5 t-85 -33.5q-52 0 -85 33t-33 85z" />
<glyph unicode="&#xec;" horiz-adv-x="502" d="M63 0l207 973h169l-207 -973h-169zM99 1431h213l209 -308h-165z" />
<glyph unicode="&#xed;" horiz-adv-x="502" d="M63 0l207 973h169l-207 -973h-169zM246 1123l240 308h219l-288 -308h-171z" />
<glyph unicode="&#xee;" horiz-adv-x="502" d="M36 1120l289 299h225l174 -299h-175l-124 196l-202 -196h-187zM63 0l207 973h169l-207 -973h-169z" />
<glyph unicode="&#xef;" horiz-adv-x="502" d="M63 0l207 973h169l-207 -973h-169zM92 1270q0 50 34 84.5t84 34.5t84.5 -34.5t34.5 -84.5q0 -51 -34 -84.5t-85 -33.5q-50 0 -84 33.5t-34 84.5zM507 1270q0 51 33.5 85t84.5 34q50 0 84 -34.5t34 -84.5q0 -51 -33.5 -84.5t-84.5 -33.5q-52 0 -85 33t-33 85z" />
<glyph unicode="&#xf0;" horiz-adv-x="1204" d="M85 433q0 142 69.5 265.5t191.5 197.5t265 74q215 0 334 -149q-55 191 -221 338l-240 -131l-57 108l191 104q-100 66 -231 117l77 132q169 -64 303 -169l244 133l57 -107l-204 -111q129 -132 194 -293t65 -336q0 -69 -10 -138q-27 -211 -183 -350.5t-361 -139.5 q-211 0 -347.5 130t-136.5 325zM258 442q0 -133 91 -219.5t232 -86.5q89 0 161.5 34t116.5 89t67.5 118.5t23.5 127.5q0 135 -91 221t-232 86q-88 0 -160.5 -34.5t-117 -89.5t-68 -119t-23.5 -127z" />
<glyph unicode="&#xf1;" horiz-adv-x="1208" d="M63 0l207 973h167l-23 -111q124 131 311 131q162 0 257 -92.5t95 -242.5q0 -50 -12 -107l-119 -551h-168l117 549q10 40 10 83q0 92 -55 147.5t-165 55.5q-126 0 -218 -78.5t-122 -217.5l-114 -539h-168zM377 1275q56 57 111.5 83t125.5 26q80 0 156 -38l53 -27 q24 -12 54 -12q66 0 140 65l95 -99q-55 -58 -111 -84.5t-127 -26.5q-60 0 -108.5 20t-85.5 39.5t-68 19.5q-65 0 -140 -66z" />
<glyph unicode="&#xf2;" horiz-adv-x="1202" d="M87 438q0 150 72 277t200.5 202.5t283.5 75.5q209 0 340 -129t131 -329q0 -150 -72.5 -278t-200.5 -203.5t-283 -75.5q-208 0 -339.5 130t-131.5 330zM259 447q0 -137 87 -224t223 -87q158 0 266 114t108 274q0 137 -87.5 224.5t-225.5 87.5q-157 0 -264 -114.5 t-107 -274.5zM407 1431h213l208 -308h-164z" />
<glyph unicode="&#xf3;" horiz-adv-x="1202" d="M87 438q0 150 72 277t200.5 202.5t283.5 75.5q209 0 340 -129t131 -329q0 -150 -72.5 -278t-200.5 -203.5t-283 -75.5q-208 0 -339.5 130t-131.5 330zM259 447q0 -137 87 -224t223 -87q158 0 266 114t108 274q0 137 -87.5 224.5t-225.5 87.5q-157 0 -264 -114.5 t-107 -274.5zM553 1123l241 308h218l-288 -308h-171z" />
<glyph unicode="&#xf4;" horiz-adv-x="1202" d="M87 438q0 150 72 277t200.5 202.5t283.5 75.5q209 0 340 -129t131 -329q0 -150 -72.5 -278t-200.5 -203.5t-283 -75.5q-208 0 -339.5 130t-131.5 330zM259 447q0 -137 87 -224t223 -87q158 0 266 114t108 274q0 137 -87.5 224.5t-225.5 87.5q-157 0 -264 -114.5 t-107 -274.5zM343 1120l289 299h225l174 -299h-175l-124 196l-202 -196h-187z" />
<glyph unicode="&#xf5;" horiz-adv-x="1202" d="M87 438q0 150 72 277t200.5 202.5t283.5 75.5q209 0 340 -129t131 -329q0 -150 -72.5 -278t-200.5 -203.5t-283 -75.5q-208 0 -339.5 130t-131.5 330zM259 447q0 -137 87 -224t223 -87q158 0 266 114t108 274q0 137 -87.5 224.5t-225.5 87.5q-157 0 -264 -114.5 t-107 -274.5zM338 1275q56 57 111.5 83t125.5 26q80 0 156 -38l53 -27q24 -12 54 -12q66 0 140 65l95 -99q-55 -58 -110.5 -84.5t-126.5 -26.5q-60 0 -108.5 20t-86 39.5t-68.5 19.5q-65 0 -140 -66z" />
<glyph unicode="&#xf6;" horiz-adv-x="1202" d="M87 438q0 150 72 277t200.5 202.5t283.5 75.5q209 0 340 -129t131 -329q0 -150 -72.5 -278t-200.5 -203.5t-283 -75.5q-208 0 -339.5 130t-131.5 330zM259 447q0 -137 87 -224t223 -87q158 0 266 114t108 274q0 137 -87.5 224.5t-225.5 87.5q-157 0 -264 -114.5 t-107 -274.5zM399 1270q0 50 34 84.5t84 34.5t84.5 -34.5t34.5 -84.5q0 -51 -34 -84.5t-85 -33.5q-50 0 -84 33.5t-34 84.5zM814 1270q0 51 33.5 85t84.5 34q50 0 84.5 -34.5t34.5 -84.5q0 -51 -34 -84.5t-85 -33.5q-52 0 -85 33t-33 85z" />
<glyph unicode="&#xf8;" horiz-adv-x="1202" d="M26 63l133 119q-72 114 -72 256q0 150 72 277t200.5 202.5t283.5 75.5q183 0 309 -103l137 121l92 -104l-137 -121q70 -116 70 -251q0 -150 -72.5 -278t-200.5 -203.5t-283 -75.5q-182 0 -307 102l-133 -119zM259 447q0 -83 32 -147l533 475q-83 61 -194 61 q-157 0 -264 -114.5t-107 -274.5zM379 195q79 -59 190 -59q158 0 266 114t108 274q0 80 -32 144z" />
<glyph unicode="&#xf9;" horiz-adv-x="1196" d="M133 321q0 51 12 110l116 542h169l-117 -549q-9 -46 -9 -85q0 -101 61.5 -152t164.5 -51q120 0 209.5 74.5t118.5 219.5l115 543h169l-121 -573q-45 -212 -182 -316t-328 -104q-167 0 -272.5 90t-105.5 251zM443 1431h213l209 -308h-165z" />
<glyph unicode="&#xfa;" horiz-adv-x="1196" d="M133 321q0 51 12 110l116 542h169l-117 -549q-9 -46 -9 -85q0 -101 61.5 -152t164.5 -51q120 0 209.5 74.5t118.5 219.5l115 543h169l-121 -573q-45 -212 -182 -316t-328 -104q-167 0 -272.5 90t-105.5 251zM590 1123l240 308h219l-288 -308h-171z" />
<glyph unicode="&#xfb;" horiz-adv-x="1196" d="M133 321q0 51 12 110l116 542h169l-117 -549q-9 -46 -9 -85q0 -101 61.5 -152t164.5 -51q120 0 209.5 74.5t118.5 219.5l115 543h169l-121 -573q-45 -212 -182 -316t-328 -104q-167 0 -272.5 90t-105.5 251zM380 1120l289 299h225l174 -299h-175l-124 196l-202 -196h-187 z" />
<glyph unicode="&#xfc;" horiz-adv-x="1196" d="M133 321q0 51 12 110l116 542h169l-117 -549q-9 -46 -9 -85q0 -101 61.5 -152t164.5 -51q120 0 209.5 74.5t118.5 219.5l115 543h169l-121 -573q-45 -212 -182 -316t-328 -104q-167 0 -272.5 90t-105.5 251zM436 1270q0 50 34 84.5t84 34.5t84.5 -34.5t34.5 -84.5 q0 -51 -34 -84.5t-85 -33.5q-50 0 -84 33.5t-34 84.5zM851 1270q0 51 33.5 85t84.5 34q50 0 84 -34.5t34 -84.5q0 -51 -33.5 -84.5t-84.5 -33.5q-52 0 -85 33t-33 85z" />
<glyph unicode="&#xfd;" horiz-adv-x="1073" d="M-15 -415l462 640l-326 748h178l256 -598l420 598h189l-988 -1388h-191zM506 1123l240 308h219l-288 -308h-171z" />
<glyph unicode="&#xfe;" horiz-adv-x="1241" d="M-24 -410l401 1885h169l-127 -592q128 111 303 111q188 0 312 -124t124 -312q0 -152 -72 -284.5t-201 -213t-283 -80.5q-122 0 -207 47.5t-129 131.5l-121 -569h-169zM326 490q-21 -151 57.5 -252t222.5 -101q159 0 269 119t110 285q0 129 -77 212t-209 83 q-144 0 -248 -98t-125 -248z" />
<glyph unicode="&#xff;" horiz-adv-x="1073" d="M-15 -415l462 640l-326 748h178l256 -598l420 598h189l-988 -1388h-191zM352 1270q0 50 34 84.5t84 34.5t84.5 -34.5t34.5 -84.5q0 -51 -34 -84.5t-85 -33.5q-50 0 -84 33.5t-34 84.5zM767 1270q0 51 33.5 85t84.5 34q50 0 84.5 -34.5t34.5 -84.5q0 -51 -34 -84.5 t-85 -33.5q-52 0 -85 33t-33 85z" />
<glyph unicode="&#x152;" horiz-adv-x="2239" d="M153 602q0 172 61 323t173 264.5t283.5 179t381.5 65.5h1229l-35 -169h-803l-97 -458h782l-36 -170h-783l-100 -468h817l-36 -169h-1175q-309 0 -485.5 162.5t-176.5 439.5zM343 618q0 -207 125.5 -327t367.5 -120h189l232 1092h-226q-162 0 -293.5 -50t-217 -137.5 t-131.5 -204.5t-46 -253z" />
<glyph unicode="&#x153;" horiz-adv-x="1953" d="M87 438q0 150 72 277t200.5 202.5t283.5 75.5q136 0 241.5 -63t162.5 -172q69 108 179 171.5t254 63.5q182 0 292 -105t110 -282q0 -102 -32 -179h-751v-18q0 -130 78 -207t216 -77q160 0 288 103l84 -115q-87 -70 -180 -102.5t-211 -32.5q-137 0 -235.5 58t-149.5 159 q-75 -102 -186.5 -159.5t-244.5 -57.5q-208 0 -339.5 130t-131.5 330zM259 447q0 -137 87 -224t223 -87q158 0 266 114t108 274q0 137 -87.5 224.5t-225.5 87.5q-157 0 -264 -114.5t-107 -274.5zM1122 562h592q2 26 2 39q0 114 -67.5 179t-177.5 65q-94 0 -168 -42.5 t-115.5 -103t-65.5 -137.5z" />
<glyph unicode="&#x178;" horiz-adv-x="1314" d="M214 1434h196l299 -664l566 664h228l-732 -839l-126 -595h-184l129 610zM562 1695q0 50 34 84.5t84 34.5t84.5 -34.5t34.5 -84.5q0 -51 -34 -84.5t-85 -33.5q-50 0 -84 33.5t-34 84.5zM977 1695q0 51 33.5 85t84.5 34q50 0 84 -34.5t34 -84.5q0 -51 -33.5 -84.5 t-84.5 -33.5q-52 0 -85 33t-33 85z" />
<glyph unicode="&#x2000;" horiz-adv-x="997" />
<glyph unicode="&#x2001;" horiz-adv-x="1995" />
<glyph unicode="&#x2002;" horiz-adv-x="997" />
<glyph unicode="&#x2003;" horiz-adv-x="1995" />
<glyph unicode="&#x2004;" horiz-adv-x="665" />
<glyph unicode="&#x2005;" horiz-adv-x="498" />
<glyph unicode="&#x2006;" horiz-adv-x="332" />
<glyph unicode="&#x2007;" horiz-adv-x="332" />
<glyph unicode="&#x2008;" horiz-adv-x="249" />
<glyph unicode="&#x2009;" horiz-adv-x="399" />
<glyph unicode="&#x200a;" horiz-adv-x="110" />
<glyph unicode="&#x2010;" horiz-adv-x="835" d="M131 467l32 151h564l-32 -151h-564z" />
<glyph unicode="&#x2011;" horiz-adv-x="835" d="M131 467l32 151h564l-32 -151h-564z" />
<glyph unicode="&#x2012;" horiz-adv-x="835" d="M131 467l32 151h564l-32 -151h-564z" />
<glyph unicode="&#x2013;" horiz-adv-x="1189" d="M114 467l30 151h956l-31 -151h-955z" />
<glyph unicode="&#x2014;" horiz-adv-x="1627" d="M56 467l30 151h1509l-30 -151h-1509z" />
<glyph unicode="&#x2018;" horiz-adv-x="496" d="M220 947l213 528h155l-172 -528h-196z" />
<glyph unicode="&#x2019;" horiz-adv-x="496" d="M217 947l172 528h196l-213 -528h-155z" />
<glyph unicode="&#x201a;" horiz-adv-x="496" d="M-41 -268l172 527h196l-213 -527h-155z" />
<glyph unicode="&#x201c;" horiz-adv-x="867" d="M220 947l213 528h155l-172 -528h-196zM591 947l213 528h154l-172 -528h-195z" />
<glyph unicode="&#x201d;" horiz-adv-x="868" d="M217 947l172 528h196l-213 -528h-155zM589 947l172 528h195l-213 -528h-154z" />
<glyph unicode="&#x201e;" horiz-adv-x="868" d="M-41 -268l172 527h196l-213 -527h-155zM331 -268l172 527h195l-213 -527h-154z" />
<glyph unicode="&#x2022;" horiz-adv-x="855" d="M198 543q0 102 72 174.5t174 72.5q101 0 174 -72.5t73 -174.5t-73 -174.5t-174 -72.5q-102 0 -174 72.5t-72 174.5z" />
<glyph unicode="&#x202f;" horiz-adv-x="399" />
<glyph unicode="&#x2039;" horiz-adv-x="643" d="M124 543l276 381h189l-290 -399l111 -363h-171z" />
<glyph unicode="&#x203a;" horiz-adv-x="643" d="M79 162l290 398l-111 364h171l115 -381l-277 -381h-188z" />
<glyph unicode="&#x205f;" horiz-adv-x="498" />
<glyph unicode="&#x20ac;" horiz-adv-x="1433" d="M101 487l30 139h159q0 60 9 126q4 32 10 65h-143l29 138h150q80 233 254.5 365t407.5 132q317 0 490 -250l-129 -110q-135 200 -372 200q-161 0 -281.5 -88t-185.5 -249h642l-28 -138h-655q-8 -41 -12 -75q-8 -66 -8 -116h634l-29 -139h-593q32 -165 135.5 -253.5 t251.5 -88.5q112 0 206.5 54.5t156.5 145.5l103 -111q-85 -119 -206 -183.5t-269 -64.5q-223 0 -375.5 132t-184.5 369h-197z" />
<glyph unicode="&#x2122;" horiz-adv-x="1495" d="M255 1323l24 111h525l-24 -111h-202l-107 -502h-120l106 502h-202zM794 821l130 613h167l88 -414l264 414h176l-130 -613h-121l96 454l-246 -391h-126l-82 390l-96 -453h-120z" />
<glyph unicode="&#x25fc;" horiz-adv-x="972" d="M0 0v973h973v-973h-973z" />
<glyph unicode="&#xfb01;" horiz-adv-x="1347" d="M122 820l32 153h212l41 190q34 161 124.5 246.5t233.5 85.5q146 0 247 -81l-82 -130q-73 54 -166 54q-70 0 -121 -49t-72 -148l-35 -168h352l-33 -153h-352l-174 -820h-169l174 820h-212zM908 0l207 973h169l-207 -973h-169zM1154 1315q0 51 34 85.5t84 34.5 q51 0 85.5 -34.5t34.5 -85.5q0 -50 -34.5 -83.5t-85.5 -33.5q-50 0 -84 33.5t-34 83.5z" />
<glyph unicode="&#xfb02;" horiz-adv-x="1347" d="M122 820l32 153h212l41 190q34 161 124.5 246.5t233.5 85.5q146 0 247 -81l-82 -130q-73 54 -166 54q-70 0 -121 -49t-72 -148l-35 -168h352l-33 -153h-352l-174 -820h-169l174 820h-212zM908 0l314 1475h169l-314 -1475h-169z" />
<glyph unicode="&#xfb03;" horiz-adv-x="2167" d="M122 820l32 153h212l41 190q34 161 124.5 246.5t233.5 85.5q146 0 247 -81l-82 -130q-73 54 -166 54q-70 0 -121 -49t-72 -148l-35 -168h352l-33 -153h-352l-174 -820h-169l174 820h-212zM942 820l32 153h212l41 190q34 161 124.5 246.5t233.5 85.5q146 0 247 -81 l-82 -130q-74 54 -166 54q-70 0 -120.5 -49t-71.5 -148l-36 -168h352l-33 -153h-352l-174 -820h-169l174 820h-212zM1729 0l206 973h169l-207 -973h-168zM1974 1315q0 51 34 85.5t84 34.5q51 0 85.5 -34.5t34.5 -85.5q0 -50 -34.5 -83.5t-85.5 -33.5q-50 0 -84 33.5 t-34 83.5z" />
<glyph unicode="&#xfb04;" horiz-adv-x="2167" d="M122 820l32 153h212l41 190q34 161 124.5 246.5t233.5 85.5q146 0 247 -81l-82 -130q-73 54 -166 54q-70 0 -121 -49t-72 -148l-35 -168h352l-33 -153h-352l-174 -820h-169l174 820h-212zM942 820l32 153h212l41 190q34 161 124.5 246.5t233.5 85.5q146 0 247 -81 l-82 -130q-74 54 -166 54q-70 0 -120.5 -49t-71.5 -148l-36 -168h352l-33 -153h-352l-174 -820h-169l174 820h-212zM1729 0l313 1475h169l-314 -1475h-168z" />
</font>
</defs>
</svg>
